<?xml version="1.0" encoding="UTF-8"?>
<svg version="1.1" xmlns="http://www.w3.org/2000/svg" width="1024" height="1024">
<path d="M0 0 C31.40633385 28.63008335 26.82017639 111.26144555 28.8125 149.875 C28.87497048 153.87708149 28.87957171 157.87305476 28.8125 161.875 C31.1225 161.875 33.4325 161.875 35.8125 161.875 C35.8125 120.955 35.8125 80.035 35.8125 37.875 C38.4525 37.875 41.0925 37.875 43.8125 37.875 C43.8125 78.795 43.8125 119.715 43.8125 161.875 C91.64085696 166.59569318 91.64085696 166.59569318 103.8125 154.875 C110.2521149 150.72502595 117.43318666 150.30328895 124.875 151.4375 C131.13262015 152.8709201 136.30651084 156.36901084 140.8125 160.875 C148.4025 161.205 155.9925 161.535 163.8125 161.875 C163.8125 120.955 163.8125 80.035 163.8125 37.875 C166.4525 37.875 169.0925 37.875 171.8125 37.875 C171.8125 78.795 171.8125 119.715 171.8125 161.875 C211.4125 161.875 251.0125 161.875 291.8125 161.875 C291.8125 120.955 291.8125 80.035 291.8125 37.875 C294.4525 37.875 297.0925 37.875 299.8125 37.875 C299.8125 78.795 299.8125 119.715 299.8125 161.875 C340.7325 161.875 381.6525 161.875 423.8125 161.875 C423.8125 164.515 423.8125 167.155 423.8125 169.875 C382.8925 169.875 341.9725 169.875 299.8125 169.875 C299.8125 209.475 299.8125 249.075 299.8125 289.875 C342.0525 289.875 384.2925 289.875 427.8125 289.875 C428.1425 303.405 428.4725 316.935 428.8125 330.875 C429.8025 333.515 430.7925 336.155 431.8125 338.875 C432.1425 338.875 432.4725 338.875 432.8125 338.875 C432.93254395 338.20146484 433.05258789 337.52792969 433.17626953 336.83398438 C440.81642256 294.65861468 440.81642256 294.65861468 456.8125 281.875 C464.05016682 276.89265502 472.31082114 276.84174692 480.8125 277.875 C489.34367539 280.40524362 494.09167714 285.35452972 498.5546875 292.76953125 C505.1523178 304.93125749 508.52808114 318.14264946 509.8125 331.875 C511.07320312 331.39160156 511.07320312 331.39160156 512.359375 330.8984375 C520.97636117 328.34453436 530.34766884 328.95173089 538.56640625 332.51171875 C541.53442395 334.31317645 544.14528053 336.65231711 546.8125 338.875 C547.1425 324.025 547.4725 309.175 547.8125 293.875 C550.4525 293.875 553.0925 293.875 555.8125 293.875 C555.82058685 294.58243851 555.82867371 295.28987701 555.83700562 296.01875305 C555.91493337 302.68438581 556.00221838 309.34982258 556.10002708 316.01519489 C556.14998172 319.44197348 556.19631157 322.86872136 556.234375 326.2956543 C556.27828887 330.23504083 556.33793728 334.17411308 556.3984375 338.11328125 C556.40998871 339.34460281 556.42153992 340.57592438 556.43344116 341.84455872 C556.4632457 343.55599312 556.4632457 343.55599312 556.49365234 345.30200195 C556.51363785 346.81090752 556.51363785 346.81090752 556.5340271 348.35029602 C556.64355755 351.12006609 556.64355755 351.12006609 558.8125 353.875 C558.85372986 353.03025116 558.89495972 352.18550232 558.93743896 351.31515503 C568.26626665 160.7653297 568.26626665 160.7653297 586.8125 131.875 C587.39 130.946875 587.9675 130.01875 588.5625 129.0625 C594.42211956 123.36564765 600.90637103 120.25979443 609 119.625 C616.32500349 120.1053281 622.84370176 121.85837493 628.2265625 127.0390625 C660.35584197 164.23305598 651.32733498 249.31864889 653.3980217 295.42038345 C653.49879767 297.66077047 653.60057812 299.90111033 653.7024231 302.14144897 C654.39172386 317.38540479 655.06350821 332.61131025 654.8125 347.875 C656.78927612 347.85452779 658.76605225 347.83405558 660.74282837 347.81358337 C670.34111572 348.09840847 678.55106372 353.04539622 685.8125 358.875 C686.64652344 359.51050781 687.48054687 360.14601563 688.33984375 360.80078125 C695.47643381 366.78739946 700.76388351 375.0681988 706.125 382.625 C706.62845947 383.33358154 707.13191895 384.04216309 707.65063477 384.7722168 C713.77421567 393.51040627 717.38769436 399.79385013 715.8125 410.875 C713.43381811 417.20128161 708.55014274 422.11465085 702.45703125 424.984375 C697.25292829 426.73701233 691.50737851 426.84650793 686.3203125 424.9765625 C684.43708142 424.03159602 682.6162424 422.96405202 680.8125 421.875 C680.4825 423.195 680.1525 424.515 679.8125 425.875 C672.5525 425.875 665.2925 425.875 657.8125 425.875 C658.0434436 428.26600952 658.0434436 428.26600952 658.27905273 430.70532227 C658.78940512 436.33065569 659.10886279 441.94726918 659.34765625 447.58984375 C659.39063339 448.56683731 659.43361053 449.54383087 659.47789001 450.5504303 C659.5673492 452.59988965 659.65551555 454.64940583 659.74243164 456.69897461 C659.8745296 459.80145214 660.01218183 462.90364875 660.15039062 466.00585938 C660.23731301 468.0130064 660.32391221 470.02016746 660.41015625 472.02734375 C660.45076675 472.93709457 660.49137726 473.8468454 660.53321838 474.78416443 C660.8127062 481.49955603 660.8125 488.13768152 660.8125 494.875 C672.0325 494.545 683.2525 494.215 694.8125 493.875 C694.83540595 499.8381823 694.85533396 505.80121311 694.86743164 511.7644043 C694.87247278 513.79468298 694.87930557 515.82495802 694.88793945 517.85522461 C694.90001467 520.76677347 694.90573034 523.6782745 694.91015625 526.58984375 C694.91531754 527.5033812 694.92047882 528.41691864 694.92579651 529.35813904 C694.92599168 531.53075427 694.87461805 533.70327296 694.8125 535.875 C693.8125 536.875 693.8125 536.875 690.92088318 536.99525452 C689.62626663 536.99303391 688.33165009 536.99081329 686.99780273 536.98852539 C685.92956772 536.98874443 685.92956772 536.98874443 684.8397522 536.9889679 C682.47516888 536.9882687 680.11066339 536.98047606 677.74609375 536.97265625 C676.11084537 536.97079209 674.47559643 536.96936818 672.84034729 536.96836853 C668.52815215 536.96454318 664.21599048 536.95471275 659.90380859 536.94366455 C655.50684054 536.9334508 651.10986711 536.92887099 646.71289062 536.92382812 C638.07941169 536.91309049 629.44596 536.89601387 620.8125 536.875 C619.62425841 533.03592912 619.51774778 529.15314027 619.33178711 525.16894531 C619.2926268 524.39782913 619.25346649 523.62671295 619.21311951 522.83222961 C619.08492152 520.28936747 618.96235706 517.74626684 618.83984375 515.203125 C618.75193904 513.4376251 618.66368254 511.67214269 618.5750885 509.90667725 C618.34307185 505.26426791 618.11583409 500.62163651 617.8895874 495.97894287 C617.6577905 491.23972491 617.42147934 486.50073231 617.18554688 481.76171875 C616.7234437 472.46636094 616.26638831 463.17076231 615.8125 453.875 C615.33941406 454.21273438 614.86632812 454.55046875 614.37890625 454.8984375 C609.32470552 458.30731362 604.82379318 459.94269296 598.8125 460.875 C598.78966446 461.70390747 598.76682892 462.53281494 598.74330139 463.38684082 C598.52563774 471.26979095 598.30527169 479.15266018 598.08200932 487.0354538 C597.96737099 491.08625999 597.85371047 495.1370883 597.74243164 499.18798828 C597.63463117 503.1108651 597.52407033 507.03365598 597.41174126 510.95640564 C597.36973907 512.43917695 597.32866564 513.92197492 597.2886219 515.40480042 C597.23155779 517.51148553 597.17092326 519.61804388 597.10961914 521.72460938 C597.07630997 522.91485718 597.04300079 524.10510498 597.00868225 525.3314209 C596.71278088 532.18449382 596.24038124 539.02890011 595.8125 545.875 C623.5325 545.875 651.2525 545.875 679.8125 545.875 C679.8125 548.515 679.8125 551.155 679.8125 553.875 C652.0925 553.875 624.3725 553.875 595.8125 553.875 C595.52375 563.630625 595.235 573.38625 594.9375 583.4375 C594.75655471 589.3959309 594.57532263 595.35431259 594.38671875 601.3125 C594.35214349 602.40482941 594.35214349 602.40482941 594.31686974 603.51922607 C593.86694163 617.66164021 593.34566699 631.80042314 592.75 645.9375 C592.70997864 646.91228302 592.66995728 647.88706604 592.62872314 648.89138794 C592.51551591 651.6269961 592.39744879 654.36234321 592.27734375 657.09765625 C592.24510208 657.87814331 592.21286041 658.65863037 592.17964172 659.46276855 C592.14606064 660.19572144 592.11247955 660.92867432 592.07788086 661.68383789 C592.0506041 662.30496964 592.02332733 662.92610138 591.995224 663.5660553 C591.72235206 667.01413117 591.24151831 670.4428535 590.8125 673.875 C620.1825 673.875 649.5525 673.875 679.8125 673.875 C679.8125 676.515 679.8125 679.155 679.8125 681.875 C650.4425 681.875 621.0725 681.875 590.8125 681.875 C590.19375 692.7340625 590.19375 692.7340625 589.5625 703.8125 C582.40577402 822.86173104 582.40577402 822.86173104 557.8125 844.875 C550.59048895 849.6769368 543.30180143 850.65290412 534.8125 849.875 C526.4430243 847.9454733 520.36073581 843.47817934 515.77294922 836.23339844 C494.71831814 800.34239373 495.96972279 749.27646912 493.0625 708.875 C492.9973822 707.97259583 492.9322644 707.07019165 492.86517334 706.14044189 C492.68200361 703.5730629 492.50383228 701.00539957 492.328125 698.4375 C492.27522308 697.6871347 492.22232117 696.93676941 492.16781616 696.16366577 C492.12049347 695.45094513 492.07317078 694.73822449 492.02441406 694.00390625 C491.96256927 693.09233765 491.96256927 693.09233765 491.8994751 692.16235352 C491.76917467 688.73558952 491.8125 685.30424039 491.8125 681.875 C474.9825 681.875 458.1525 681.875 440.8125 681.875 C440.1525 685.175 439.4925 688.475 438.8125 691.875 C437.73721277 694.75106945 436.64953397 697.47362665 435.375 700.25 C434.92543945 701.27673828 434.92543945 701.27673828 434.46679688 702.32421875 C432.1316706 707.54152909 432.1316706 707.54152909 430.22990417 709.52850342 C428.02183012 713.18394504 428.3731667 716.76471197 428.38012695 720.95800781 C428.36483948 722.33413742 428.36483948 722.33413742 428.34924316 723.73806763 C428.31906736 726.76814851 428.30984014 729.79791348 428.30078125 732.828125 C428.28393798 734.92992202 428.26578822 737.03170895 428.24638367 739.13348389 C428.19883942 744.66378627 428.16905858 750.19404773 428.14294434 755.7244873 C428.11316121 761.36849043 428.06662315 767.01235249 428.02148438 772.65625 C427.93540086 783.72909294 427.86807795 794.80196487 427.8125 805.875 C425.1725 805.875 422.5325 805.875 419.8125 805.875 C419.4825 778.155 419.1525 750.435 418.8125 721.875 C414.3575 723.36 414.3575 723.36 409.8125 724.875 C401.69431841 726.17157289 394.88309219 723.83197779 387.91015625 719.765625 C377.36814444 712.02047346 372.80027949 697.01285416 369.8125 684.875 C369.8125 683.885 369.8125 682.895 369.8125 681.875 C346.7125 681.875 323.6125 681.875 299.8125 681.875 C299.8125 722.795 299.8125 763.715 299.8125 805.875 C297.1725 805.875 294.5325 805.875 291.8125 805.875 C291.8125 764.955 291.8125 724.035 291.8125 681.875 C250.8925 681.875 209.9725 681.875 167.8125 681.875 C167.8125 679.235 167.8125 676.595 167.8125 673.875 C208.7325 673.875 249.6525 673.875 291.8125 673.875 C291.8125 666.285 291.8125 658.695 291.8125 650.875 C289.1725 652.195 286.5325 653.515 283.8125 654.875 C281.375 655.625 281.375 655.625 278.8125 655.875 C278.16796875 655.93816406 277.5234375 656.00132812 276.859375 656.06640625 C268.45826848 656.52171097 261.66962409 653.70561803 255.1875 648.4375 C233.02145248 627.08953157 228.12515112 587.44491631 221.8125 558.875 C221.44898438 560.05835938 221.08546875 561.24171875 220.7109375 562.4609375 C217.22095718 573.54282664 213.85005069 583.99610965 204.8125 591.875 C204.090625 592.57625 203.36875 593.2775 202.625 594 C196.10619585 598.34586943 189.27851622 599.489571 181.56640625 598.53515625 C177.6369954 597.59321237 174.3135067 595.91316858 170.80859375 593.93359375 C168.89458744 592.71882564 168.89458744 592.71882564 166.8125 592.875 C165.1717385 594.72446359 165.1717385 594.72446359 163.5 597.0625 C160.80901811 600.6170475 158.10152135 603.84563823 154.8125 606.875 C154.07 607.57625 153.3275 608.2775 152.5625 609 C145.64241459 613.71824005 138.05456871 614.87679841 129.8125 613.875 C118.41863716 611.23112022 109.65928465 604.20395232 102.8125 594.875 C101.4441387 592.56093366 100.13473982 590.21598133 98.8125 587.875 C97.77809208 596.98281899 96.77347424 606.09172976 95.8828125 615.21484375 C87.35599464 702.29162158 87.35599464 702.29162158 67.8125 718.875 C61.36619271 723.19182696 54.54784743 724.65130727 46.8125 723.875 C37.25913545 721.67286851 30.54188411 716.75614375 24.8125 708.875 C4.35574062 675.34587243 5.12933815 626.12637457 2.8125 587.875 C1.92389282 587.89457764 1.92389282 587.89457764 1.01733398 587.91455078 C-11.5379063 588.0757286 -21.57233826 583.447191 -30.75 574.875 C-40.60814723 564.41679164 -46.96286489 551.0837888 -53.78369141 538.55712891 C-56.98858896 532.69541773 -60.26874575 527.03026716 -64.13208008 521.57543945 C-65.1875 519.875 -65.1875 519.875 -65.1875 517.875 C-70.00734294 521.23562444 -72.87437691 525.33855114 -76.125 530.125 C-79.15453453 534.52662049 -82.18269706 538.92568492 -85.34375 543.234375 C-85.80458984 543.86311523 -86.26542969 544.49185547 -86.74023438 545.13964844 C-90.26178624 549.36218398 -93.86489429 551.52035933 -99.30859375 552.3515625 C-106.57626858 552.67083608 -111.7482052 551.83217549 -117.1875 546.875 C-122.33591043 541.71529919 -124.33591397 538.12126465 -124.5625 530.6875 C-124.63597656 529.05748047 -124.63597656 529.05748047 -124.7109375 527.39453125 C-124.00610826 522.6553436 -121.91300712 519.73499376 -119.1875 515.875 C-118.72843262 515.1931665 -118.26936523 514.51133301 -117.79638672 513.80883789 C-106.79653599 497.51538063 -94.18001757 478.94807855 -73.8125 474.5 C-62.27706728 472.8079196 -51.65027178 474.8473291 -42.0625 481.5625 C-33.3485022 488.71432453 -27.54822791 497.64636497 -21.875 507.25 C-21.13280809 508.48985666 -20.38988032 509.7292731 -19.64624023 510.96826172 C-14.81013037 519.04657242 -10.05039194 527.1718147 -5.41088867 535.36474609 C-3.14360133 539.37205576 -3.14360133 539.37205576 -0.1875 542.875 C-0.20811493 542.32669305 -0.22872986 541.7783861 -0.24996948 541.21346378 C-0.75260972 527.84136612 -1.25336171 514.46919887 -1.75210571 501.0969553 C-1.99335584 494.63011433 -2.23522356 488.1632977 -2.47851562 481.6965332 C-2.71340162 475.45259364 -2.94664843 469.20859478 -3.17877197 462.96455193 C-3.2674963 460.58558925 -3.35680536 458.2066483 -3.44671631 455.82773018 C-3.5728093 452.48880659 -3.6967992 449.14981089 -3.8203125 445.81079102 C-3.85771545 444.83326874 -3.89511841 443.85574646 -3.93365479 442.84860229 C-3.9673114 441.92750168 -4.00096802 441.00640106 -4.03564453 440.05738831 C-4.06514191 439.2692553 -4.09463928 438.4811223 -4.12503052 437.66910648 C-4.21290572 433.73866473 -4.1875 429.80642397 -4.1875 425.875 C-31.9075 425.875 -59.6275 425.875 -88.1875 425.875 C-88.1875 423.235 -88.1875 420.595 -88.1875 417.875 C-60.4675 417.875 -32.7475 417.875 -4.1875 417.875 C-4.5175 413.255 -4.8475 408.635 -5.1875 403.875 C-5.33985064 400.4229002 -5.4761792 396.97735617 -5.57641602 393.52416992 C-5.62052612 392.1236438 -5.62052612 392.1236438 -5.66552734 390.69482422 C-5.76023835 387.66511687 -5.8509249 384.63530512 -5.94140625 381.60546875 C-6.00702962 379.47226837 -6.07286497 377.3390745 -6.13890076 375.20588684 C-6.27591494 370.76076321 -6.41104542 366.31558789 -6.54467773 361.87036133 C-6.71548929 356.19031587 -6.89003407 350.51039289 -7.06585789 344.8305006 C-7.20166957 340.43550496 -7.33602459 336.04046578 -7.4698925 331.64541054 C-7.53375619 329.55115068 -7.59794619 327.45690075 -7.66247749 325.36266136 C-7.75237472 322.434767 -7.84043476 319.50682298 -7.92797852 316.57885742 C-7.95445969 315.7261879 -7.98094086 314.87351837 -8.00822449 313.99501038 C-8.16649209 308.61920327 -8.20990511 303.25317551 -8.1875 297.875 C-13.4675 297.875 -18.7475 297.875 -24.1875 297.875 C-24.17082275 299.13723389 -24.15414551 300.39946777 -24.13696289 301.69995117 C-23.98701493 318.80553822 -24.71946907 335.84672055 -25.51989746 352.92730713 C-25.69530531 356.69939071 -25.86375151 360.4717857 -26.03320312 364.24414062 C-26.4036276 372.45513358 -26.7913309 380.66520882 -27.1875 388.875 C-27.26161102 390.43272125 -27.26161102 390.43272125 -27.33721924 392.02191162 C-27.46093935 394.59170112 -27.59016013 397.16111904 -27.72265625 399.73046875 C-27.77262001 400.77452629 -27.77262001 400.77452629 -27.82359314 401.8396759 C-27.99360495 404.97913285 -28.37452016 407.84347804 -29.1875 410.875 C-36.35098484 410.90076688 -43.51445736 410.91803764 -50.67797852 410.92993164 C-53.10506639 410.93490025 -55.53215137 410.94167744 -57.95922852 410.95043945 C-73.07780503 411.00357483 -88.09130384 410.72975565 -103.1875 409.875 C-103.1875 396.015 -103.1875 382.155 -103.1875 367.875 C-82.9375 367.875 -82.9375 367.875 -76.0625 368.375 C-75.38058594 368.42269531 -74.69867188 368.47039062 -73.99609375 368.51953125 C-72.3928262 368.63243742 -70.79008081 368.75273225 -69.1875 368.875 C-69.19837646 368.27486084 -69.20925293 367.67472168 -69.22045898 367.05639648 C-69.31395358 357.03466579 -68.83564843 347.0399544 -68.38793945 337.03051758 C-68.2504783 333.94822486 -68.11811095 330.86574327 -67.98632812 327.78320312 C-67.5515068 317.79500384 -67.04141517 307.83734368 -66.1875 297.875 C-73.4475 297.875 -80.7075 297.875 -88.1875 297.875 C-88.1875 295.235 -88.1875 292.595 -88.1875 289.875 C-80.9275 289.875 -73.6675 289.875 -66.1875 289.875 C-66.07156494 286.55961182 -65.95562988 283.24422363 -65.83618164 279.82836914 C-65.45213245 268.85996921 -65.0643355 257.89170408 -64.67470646 246.92350101 C-64.43864858 240.27515242 -64.20384331 233.62676612 -63.97192383 226.97827148 C-63.74795751 220.55910591 -63.52067048 214.14006564 -63.29110527 207.72109795 C-63.20421128 205.27521351 -63.11850287 202.82928664 -63.03401375 200.38331795 C-62.9152426 196.95081849 -62.79221231 193.51849567 -62.66821289 190.08618164 C-62.61750137 188.5778199 -62.61750137 188.5778199 -62.56576538 187.03898621 C-62.5307341 186.09264313 -62.49570282 185.14630005 -62.45960999 184.17127991 C-62.41674661 182.95589586 -62.41674661 182.95589586 -62.37301731 181.7159586 C-62.11453728 177.7576699 -61.62555086 173.8174577 -61.1875 169.875 C-70.0975 169.875 -79.0075 169.875 -88.1875 169.875 C-88.1875 167.235 -88.1875 164.595 -88.1875 161.875 C-79.2775 161.875 -70.3675 161.875 -61.1875 161.875 C-61.08953125 159.29042969 -60.9915625 156.70585937 -60.890625 154.04296875 C-55.53165298 18.81588252 -55.53165298 18.81588252 -35.25 -0.3125 C-23.80025595 -8.99851273 -11.558505 -7.70567 0 0 Z M-17.1875 126.875 C-17.89875207 138.55985544 -18.33284014 150.16704426 -18.1875 161.875 C-16.5375 161.875 -14.8875 161.875 -13.1875 161.875 C-13.42376658 157.21120413 -13.67224016 152.5482815 -13.93212891 147.88574219 C-14.01883741 146.29900896 -14.10218715 144.71208853 -14.18212891 143.125 C-14.29751443 140.84577978 -14.42490156 138.56750236 -14.5546875 136.2890625 C-14.58811249 135.57755035 -14.62153748 134.86603821 -14.65597534 134.13296509 C-14.80730343 130.05671363 -14.80730343 130.05671363 -17.1875 126.875 Z M-19.1875 169.875 C-19.56286005 178.25745331 -19.93680988 186.63996802 -20.30914211 195.0225563 C-20.48222502 198.91838693 -20.65572633 202.81419781 -20.83032227 206.70996094 C-21.5251645 222.22155098 -22.20868677 237.73333204 -22.78125 253.25 C-22.8224144 254.33234924 -22.8635788 255.41469849 -22.9059906 256.52984619 C-23.3016886 267.64401983 -23.27914376 278.75555676 -23.1875 289.875 C-18.2375 289.875 -13.2875 289.875 -8.1875 289.875 C-8.11842128 279.36156616 -8.3836202 268.90476501 -8.80859375 258.40234375 C-8.87367293 256.74631069 -8.93853325 255.09026901 -9.00318909 253.43421936 C-9.13856475 249.98089901 -9.27570343 246.52765519 -9.41430664 243.07446289 C-9.58933235 238.71338874 -9.76124145 234.35219926 -9.93202782 229.99095726 C-10.33835381 219.61846469 -10.75621872 209.24648508 -11.1875 198.875 C-11.26161102 197.08851044 -11.26161102 197.08851044 -11.33721924 195.26593018 C-11.46130243 192.32420585 -11.59034423 189.38277038 -11.72265625 186.44140625 C-11.75596542 185.65603989 -11.7892746 184.87067352 -11.82359314 184.06150818 C-12.04775954 179.2898326 -12.54400755 174.60895609 -13.1875 169.875 C-15.1675 169.875 -17.1475 169.875 -19.1875 169.875 Z M29.8125 169.875 C29.67939801 183.45405885 30.09399641 196.9906384 30.6171875 210.55859375 C30.70208671 212.79395004 30.78697627 215.02930669 30.87185669 217.2646637 C31.04924883 221.90969816 31.22962468 226.5546067 31.41162109 231.19946289 C31.64455283 237.16107865 31.86541935 243.12307976 32.08363152 249.0852499 C32.25395677 253.68269848 32.43278662 258.27978729 32.61401749 262.8768177 C32.69930428 265.07721021 32.78139607 267.27772893 32.8602562 269.47836113 C32.97060431 272.53475091 33.09289584 275.59043488 33.21826172 278.64624023 C33.24847412 279.55676651 33.27868652 280.46729279 33.30981445 281.40541077 C33.30553849 286.1240739 33.30553849 286.1240739 35.8125 289.875 C35.8125 250.275 35.8125 210.675 35.8125 169.875 C33.8325 169.875 31.8525 169.875 29.8125 169.875 Z M43.8125 169.875 C43.8125 209.475 43.8125 249.075 43.8125 289.875 C53.3825 289.875 62.9525 289.875 72.8125 289.875 C73.19921875 285.78480469 73.5859375 281.69460938 73.984375 277.48046875 C74.30508283 274.13148693 74.62720705 270.78264776 74.95025635 267.4338913 C75.28620048 263.94755023 75.619893 260.46103424 75.94726562 256.97387695 C77.29531333 242.63401953 78.75733647 228.33571049 80.859375 214.08203125 C81.09512238 212.48140083 81.09512238 212.48140083 81.33563232 210.84843445 C83.51081172 196.67369356 86.90418369 183.37286986 91.8125 169.875 C75.9725 169.875 60.1325 169.875 43.8125 169.875 Z M146.8125 169.875 C147.204375 171.009375 147.59625 172.14375 148 173.3125 C148.27457031 174.15554688 148.54914063 174.99859375 148.83203125 175.8671875 C149.51527456 177.96319287 150.22294469 180.05132603 150.94921875 182.1328125 C158.63808716 205.20558115 160.41685567 230.79325527 162.8125 254.875 C163.1425 254.875 163.4725 254.875 163.8125 254.875 C163.8125 226.825 163.8125 198.775 163.8125 169.875 C158.2025 169.875 152.5925 169.875 146.8125 169.875 Z M171.8125 169.875 C171.8125 209.475 171.8125 249.075 171.8125 289.875 C185.3425 289.875 198.8725 289.875 212.8125 289.875 C214.7925 284.265 216.7725 278.655 218.8125 272.875 C224.41536315 260.47717516 230.53793723 250.03612667 243.62890625 244.734375 C250.81266747 242.79520019 261.01255673 242.41187446 267.921875 245.65625 C280.27984831 253.62254684 286.46779338 265.16623624 290.8125 278.875 C291.1425 278.875 291.4725 278.875 291.8125 278.875 C291.8125 242.905 291.8125 206.935 291.8125 169.875 C252.2125 169.875 212.6125 169.875 171.8125 169.875 Z M118.8125 245.875 C118.37773523 250.21185563 117.95087317 254.54940156 117.53076172 258.88769531 C117.38732993 260.3579514 117.24188279 261.82801254 117.09423828 263.29785156 C116.20299436 272.18603924 115.58077948 280.92801339 115.8125 289.875 C118.4525 289.875 121.0925 289.875 123.8125 289.875 C123.40636707 284.73357875 122.99733705 279.59239899 122.58569336 274.45141602 C122.44623672 272.7047337 122.30755341 270.95798946 122.16967773 269.21118164 C121.97065303 266.69139957 121.76879112 264.1718579 121.56640625 261.65234375 C121.47571617 260.4925425 121.47571617 260.4925425 121.38319397 259.30931091 C121.01763236 254.7982629 120.49897811 250.34876488 119.8125 245.875 C119.4825 245.875 119.1525 245.875 118.8125 245.875 Z M607.8125 253.875 C606.18114303 257.13771394 606.38142159 260.76888476 606.1640625 264.36328125 C606.10700134 265.26021194 606.04994019 266.15714264 605.9911499 267.08125305 C605.80083439 270.11634295 605.61853482 273.15184303 605.4375 276.1875 C605.37346985 277.24177185 605.3094397 278.2960437 605.24346924 279.38226318 C604.01435314 299.7454405 603.07010336 320.11943211 602.1875 340.5 C602.15616219 341.22021458 602.12482437 341.94042915 602.09253693 342.68246841 C601.19129427 363.4093249 600.43903896 384.13800856 599.8125 404.875 C602.90097457 400.77232541 605.75920779 396.59282946 608.5 392.25 C609.01111328 391.51265625 609.52222656 390.7753125 610.04882812 390.015625 C613.35134348 384.67163486 614.14605997 380.04645717 614.00878906 373.84228516 C613.9997779 373.0597084 613.99076674 372.27713165 613.98148251 371.47084045 C613.8392429 361.84945454 613.40844035 352.23662956 612.97265625 342.625 C612.88505739 340.63119864 612.79777889 338.63738319 612.71080017 336.64355469 C612.52905798 332.49533355 612.3448105 328.34723482 612.15844727 324.19921875 C611.92195636 318.93518553 611.68977141 313.67097438 611.4592371 308.40667725 C611.23599506 303.31272054 611.01068575 298.21885587 610.78515625 293.125 C610.72271571 291.70979065 610.72271571 291.70979065 610.65901375 290.26599121 C610.12180569 278.1307526 609.51399711 266.00188123 608.8125 253.875 C608.4825 253.875 608.1525 253.875 607.8125 253.875 Z M34.8125 297.875 C34.8125 304.805 34.8125 311.735 34.8125 318.875 C35.1425 318.875 35.4725 318.875 35.8125 318.875 C35.8125 311.945 35.8125 305.015 35.8125 297.875 C35.4825 297.875 35.1525 297.875 34.8125 297.875 Z M43.8125 297.875 C43.8125 337.475 43.8125 377.075 43.8125 417.875 C50.4125 417.875 57.0125 417.875 63.8125 417.875 C64.94970338 415.60059324 65.0360587 414.08908898 65.19850159 411.55699158 C65.25877533 410.6501059 65.31904907 409.74322021 65.38114929 408.80885315 C65.44300919 407.81095261 65.50486908 406.81305206 65.56860352 405.78491211 C65.63702454 404.7359375 65.70544556 403.68696289 65.77593994 402.60620117 C66.00205409 399.12184401 66.22185635 395.63712023 66.44140625 392.15234375 C66.5966226 389.73293692 66.75213909 387.31354932 66.90794373 384.8941803 C67.2342491 379.81251755 67.5575558 374.73067551 67.87866211 369.64868164 C68.28958616 363.14748614 68.7068479 356.64671712 69.12625217 350.1460638 C69.44844867 345.14380269 69.76776122 340.14136076 70.08616447 335.13885689 C70.23889787 332.74312016 70.39239989 330.34743231 70.5466938 327.95179558 C70.76256878 324.59165345 70.97468298 321.23129416 71.18579102 317.87084961 C71.24967514 316.88711868 71.31355927 315.90338776 71.37937927 314.8898468 C71.46556015 313.49991013 71.46556015 313.49991013 71.55348206 312.08189392 C71.60380364 311.28898421 71.65412523 310.4960745 71.70597172 309.67913723 C71.85534853 305.74710096 71.8125 301.80987264 71.8125 297.875 C62.5725 297.875 53.3325 297.875 43.8125 297.875 Z M114.8125 297.875 C113.30417645 311.9615855 112.1876841 326.04110079 111.3046875 340.1796875 C111.17328551 342.24424881 111.04161708 344.30879317 110.90969849 346.37332153 C110.63693778 350.65385317 110.36657035 354.93452641 110.09814453 359.21533203 C109.75452956 364.69387657 109.40596185 370.17209231 109.05578423 375.65022087 C108.78489566 379.89318344 108.51597509 384.13626885 108.247715 388.37939835 C108.11979737 390.40079823 107.99141307 392.42216864 107.86254501 394.44350815 C107.68363413 397.2563305 107.5072291 400.06929885 107.33154297 402.88232422 C107.27858063 403.70830109 107.22561829 404.53427795 107.17105103 405.38528442 C107.12345642 406.15555969 107.07586182 406.92583496 107.02682495 407.7194519 C106.98517653 408.3811331 106.9435281 409.04281429 106.9006176 409.72454643 C106.78937934 412.43924495 106.8125 415.15802337 106.8125 417.875 C115.3925 417.875 123.9725 417.875 132.8125 417.875 C132.64121582 415.45720215 132.46993164 413.0394043 132.29345703 410.54833984 C131.71814481 402.42609777 131.14352425 394.30380686 130.56921577 386.18149376 C130.2220816 381.27234036 129.87473712 376.36320206 129.52685547 371.45410156 C129.19045226 366.70673365 128.85458371 361.95932821 128.51915741 357.21189117 C128.3866294 355.33675433 128.25396447 353.46162716 128.12116241 351.5865097 C127.46052157 342.25340633 126.80744416 332.92013819 126.20605469 323.58300781 C126.16014883 322.87436647 126.11424297 322.16572514 126.06694603 321.43560982 C125.85754933 318.19816965 125.65176964 314.96058004 125.4524231 311.72250366 C125.38159515 310.61476593 125.31076721 309.5070282 125.23779297 308.36572266 C125.17913055 307.41750641 125.12046814 306.46929016 125.06002808 305.49234009 C124.81466864 302.89793103 124.37085783 300.41879809 123.8125 297.875 C120.8425 297.875 117.8725 297.875 114.8125 297.875 Z M171.8125 297.875 C171.72468926 312.1279127 171.72468926 312.1279127 171.66601562 326.38085938 C171.64834581 332.22689369 171.6278756 338.07278231 171.58618164 343.91870117 C171.41363553 368.75507283 172.17509505 393.17100964 174.8125 417.875 C181.7425 417.875 188.6725 417.875 195.8125 417.875 C195.93778076 416.40788574 196.06306152 414.94077148 196.19213867 413.42919922 C199.52813283 374.59116208 203.28766608 336.14415537 210.8125 297.875 C197.9425 297.875 185.0725 297.875 171.8125 297.875 Z M299.8125 297.875 C299.8125 310.55502008 300.19188399 321.97185476 302.125 334.3125 C302.59357829 337.43508822 303.05163952 340.55917166 303.5078125 343.68359375 C303.62148666 344.4555307 303.73516083 345.22746765 303.85227966 346.02279663 C305.12392735 354.78506272 306.01354353 363.57978364 306.82348633 372.39624023 C306.92685303 373.46173096 307.03021973 374.52722168 307.13671875 375.625 C307.22010498 376.54796875 307.30349121 377.4709375 307.3894043 378.421875 C307.8191008 380.91327169 308.56199487 382.69211468 309.8125 384.875 C310.369375 384.19953125 310.92625 383.5240625 311.5 382.828125 C318.01074366 375.21759356 322.70275368 371.4871171 332.5703125 369.78125 C333.55402832 369.60916016 334.53774414 369.43707031 335.55126953 369.25976562 C336.29747559 369.13279297 337.04368164 369.00582031 337.8125 368.875 C338.06829834 368.05523682 338.32409668 367.23547363 338.58764648 366.39086914 C354.00458728 317.42688497 354.00458728 317.42688497 372.8125 305.875 C373.45316406 305.4625 374.09382813 305.05 374.75390625 304.625 C382.52586845 300.37770377 392.22639583 300.73973522 400.71484375 302.46484375 C406.85851711 304.57096874 411.15990211 308.48142831 415.78125 312.94921875 C417.66569506 314.92278034 417.66569506 314.92278034 419.8125 315.875 C419.8125 309.935 419.8125 303.995 419.8125 297.875 C380.2125 297.875 340.6125 297.875 299.8125 297.875 Z M252.8125 300.875 C244.57210694 338.57060297 237.8125 379.20728984 237.8125 417.875 C248.0425 417.875 258.2725 417.875 268.8125 417.875 C268.12497035 403.4696169 266.67400732 389.20391246 265.0625 374.875 C264.92999847 373.68778351 264.79749695 372.50056702 264.66098022 371.27737427 C263.0341428 356.75728517 261.32282755 342.25835581 259.125 327.8125 C258.93518555 326.55759766 258.74537109 325.30269531 258.54980469 324.00976562 C257.31417946 316.20920981 255.6864035 308.5464665 253.8125 300.875 C253.4825 300.875 253.1525 300.875 252.8125 300.875 Z M388.8125 349.875 C384.08198606 360.79544175 380.46580228 371.85023558 377.46875 383.36376953 C377.05243828 384.95684332 376.62414869 386.54687356 376.1796875 388.13232422 C373.16811445 398.99657399 374.16479126 406.78163252 378.8125 416.875 C379.89358449 418.18161495 379.89358449 418.18161495 382.49633789 417.98852539 C384.24805298 417.98067017 384.24805298 417.98067017 386.03515625 417.97265625 C387.29521484 417.96943359 388.55527344 417.96621094 389.85351562 417.96289062 C391.19401109 417.95453403 392.53450588 417.94606907 393.875 417.9375 C395.21939942 417.9324866 396.5638006 417.92792342 397.90820312 417.92382812 C401.20967941 417.91199488 404.51106803 417.89550971 407.8125 417.875 C406.45292481 409.01073296 404.6662997 400.29365426 402.625 391.5625 C402.47454224 390.91824066 402.32408447 390.27398132 402.16906738 389.61019897 C400.04555829 380.56493665 397.72650648 371.5907577 395.0625 362.6875 C394.78124268 361.73254639 394.49998535 360.77759277 394.21020508 359.79370117 C393.80451294 358.48236206 393.80451294 358.48236206 393.390625 357.14453125 C393.15762695 356.38760986 392.92462891 355.63068848 392.68457031 354.85083008 C391.72163645 352.66913251 390.59085178 351.4398876 388.8125 349.875 Z M471.8125 371.875 C471.47353732 374.70775953 471.14120306 377.54104661 470.8125 380.375 C470.71710937 381.16648437 470.62171875 381.95796875 470.5234375 382.7734375 C469.94142118 387.84529404 469.71882915 392.76993859 469.8125 397.875 C473.29565553 391.65507941 474.06095063 385.9824921 473.4375 378.9375 C473.38078125 378.25365234 473.3240625 377.56980469 473.265625 376.86523438 C473.12595466 375.20082954 472.97085535 373.53773114 472.8125 371.875 C472.4825 371.875 472.1525 371.875 471.8125 371.875 Z M521.8125 378.875 C516.60804493 387.67335918 516.39588148 394.56322948 517.5 404.5625 C517.61794922 405.84833984 517.73589844 407.13417969 517.85742188 408.45898438 C518.14935865 411.60022406 518.47724122 414.73808824 518.8125 417.875 C526.7325 417.875 534.6525 417.875 542.8125 417.875 C536.66105943 404.77838459 530.33663524 391.7897055 523.8125 378.875 C523.1525 378.875 522.4925 378.875 521.8125 378.875 Z M656.8125 391.875 C656.78533911 394.89589478 656.76558343 397.91654129 656.75 400.9375 C656.74162109 401.78505859 656.73324219 402.63261719 656.72460938 403.50585938 C656.72138672 404.34052734 656.71816406 405.17519531 656.71484375 406.03515625 C656.70960693 406.79449463 656.70437012 407.55383301 656.69897461 408.33618164 C656.84197595 411.53418362 657.35978229 414.70597606 657.8125 417.875 C664.0825 417.875 670.3525 417.875 676.8125 417.875 C675.35208795 414.22396986 674.30637655 411.88437071 672.1328125 408.80859375 C671.61589844 408.07576172 671.09898437 407.34292969 670.56640625 406.58789062 C670.02886719 405.83701172 669.49132812 405.08613281 668.9375 404.3125 C668.40769531 403.55775391 667.87789062 402.80300781 667.33203125 402.02539062 C663.49667432 396.58013959 663.49667432 396.58013959 658.8125 391.875 C658.1525 391.875 657.4925 391.875 656.8125 391.875 Z M43.8125 425.875 C43.8125 439.075 43.8125 452.275 43.8125 465.875 C47.4425 463.565 51.0725 461.255 54.8125 458.875 C57.12496813 458.13921469 59.4523396 457.43938618 61.8125 456.875 C63.23517862 454.02964275 63.03221869 451.51281448 63.12890625 448.3359375 C63.17080078 447.03398438 63.21269531 445.73203125 63.25585938 444.390625 C63.29567299 443.01041955 63.33538522 441.63021117 63.375 440.25 C63.41819407 438.86196585 63.46180865 437.47394472 63.50585938 436.0859375 C63.61221934 432.68241871 63.71288918 429.278723 63.8125 425.875 C57.2125 425.875 50.6125 425.875 43.8125 425.875 Z M106.8125 425.875 C105.67694286 430.02344928 105.48420776 434.13242018 105.27734375 438.41015625 C105.23436661 439.2440538 105.19138947 440.07795135 105.14710999 440.93711853 C105.05702093 442.7030185 104.96888759 444.46901917 104.88256836 446.23510742 C104.75165481 448.90376693 104.61363977 451.57198683 104.47460938 454.24023438 C104.26111151 458.40466272 104.07209155 462.56954022 103.902771 466.73599243 C103.82418091 468.59821614 103.72919342 470.45973362 103.63134766 472.32104492 C103.43100325 478.25866316 104.24910289 482.0040215 107.3125 487.0625 C115.3843822 501.80788588 119.5507084 518.3052722 123.58105469 534.52978516 C125.96162314 543.9132741 129.26420079 552.87827686 132.8125 561.875 C135.2922179 558.89759684 136.49849523 556.29942182 137.56640625 552.5859375 C137.86353516 551.56113281 138.16066406 550.53632812 138.46679688 549.48046875 C138.91635742 547.88138672 138.91635742 547.88138672 139.375 546.25 C139.67857422 545.20714844 139.98214844 544.16429687 140.29492188 543.08984375 C141.17238321 540.02733164 141.99817431 536.95482152 142.8125 533.875 C143.05339355 533.05588135 143.29428711 532.2367627 143.54248047 531.39282227 C145.33663825 524.43381715 144.33904414 518.23084856 143.16882324 511.21499634 C139.74942348 490.55890489 137.9175667 469.71834795 135.97341537 448.88500214 C135.78547037 446.87592512 135.59566787 444.86702214 135.40582275 442.85812378 C135.17050587 440.36212828 134.93935876 437.86573538 134.71282959 435.368927 C134.55672211 433.70964676 134.55672211 433.70964676 134.39746094 432.0168457 C134.30817322 431.04399124 134.2188855 430.07113678 134.12689209 429.06880188 C134.04024674 426.9028649 134.04024674 426.9028649 132.8125 425.875 C130.88582493 425.78751793 128.95598139 425.76802666 127.02734375 425.77734375 C125.85751953 425.78056641 124.68769531 425.78378906 123.48242188 425.78710938 C121.63487305 425.79967773 121.63487305 425.79967773 119.75 425.8125 C118.51443359 425.81701172 117.27886719 425.82152344 116.00585938 425.82617188 C112.94135883 425.83800392 109.87695279 425.85448827 106.8125 425.875 Z M175.8125 425.875 C176.1425 429.505 176.4725 433.135 176.8125 436.875 C178.111875 435.946875 179.41125 435.01875 180.75 434.0625 C185.23694664 431.04983583 189.61564109 429.27557191 194.8125 427.875 C194.8125 427.215 194.8125 426.555 194.8125 425.875 C188.5425 425.875 182.2725 425.875 175.8125 425.875 Z M236.8125 425.875 C236.4825 429.175 236.1525 432.475 235.8125 435.875 C235.68746094 437.03386719 235.56242187 438.19273437 235.43359375 439.38671875 C234.98749809 447.10322448 236.41559358 451.77651403 240.3293457 458.38500977 C253.8370955 481.89416772 257.49747232 511.34180241 261.60864258 537.72924805 C261.75454834 538.65906494 261.9004541 539.58888184 262.05078125 540.546875 C262.17493408 541.3625293 262.29908691 542.17818359 262.42700195 543.01855469 C262.63697079 544.88232776 262.63697079 544.88232776 263.8125 545.875 C266.50904854 545.94819621 269.17941458 545.96742537 271.875 545.9375 C272.63361328 545.93298828 273.39222656 545.92847656 274.17382812 545.92382812 C276.05341871 545.9120068 277.93296899 545.89407078 279.8125 545.875 C280.38885841 540.5045966 280.95825044 535.1335145 281.52148438 529.76171875 C281.71362902 527.93827899 281.90760306 526.11503096 282.10351562 524.29199219 C282.38644872 521.65609509 282.66257099 519.01955506 282.9375 516.3828125 C283.06874268 515.18061569 283.06874268 515.18061569 283.20263672 513.95413208 C284.09928473 505.22027079 284.36547104 497.33132686 281.625 488.9375 C275.97434043 470.09452056 273.34926977 450.40060588 271.12207031 430.8984375 C270.84067882 428.67767189 270.84067882 428.67767189 269.8125 425.875 C258.9225 425.875 248.0325 425.875 236.8125 425.875 Z M381.8125 425.875 C382.7944809 432.35420093 383.79759866 438.82758007 384.890625 445.2890625 C388.02643172 464.3236773 390.13607014 483.43453442 392.0625 502.625 C392.19305786 503.92334778 392.32361572 505.22169556 392.45812988 506.55938721 C392.83486456 510.32572285 393.20778844 514.09240515 393.578125 517.859375 C393.68833984 518.97821075 393.79855469 520.09704651 393.91210938 521.24978638 C394.55866881 527.92600051 395.09948139 534.60030667 395.53948975 541.29351807 C395.65820946 543.85864052 395.65820946 543.85864052 396.8125 545.875 C403.4125 545.875 410.0125 545.875 416.8125 545.875 C419.01610244 525.18999379 420.18645234 504.56855979 420.34423828 483.76174927 C420.36455223 481.36016925 420.39511341 478.95865143 420.43652344 476.55734253 C420.66818548 461.97901789 419.63332778 450.26870538 413.8125 436.875 C412.92969145 434.11599418 412.13294894 431.3520047 411.35546875 428.5625 C410.9492206 426.85954124 410.9492206 426.85954124 409.8125 425.875 C407.73987924 425.78732888 405.66429706 425.76804127 403.58984375 425.77734375 C401.69975586 425.78217773 401.69975586 425.78217773 399.77148438 425.78710938 C398.43098891 425.79546597 397.09049412 425.80393093 395.75 425.8125 C394.40560058 425.8175134 393.0611994 425.82207658 391.71679688 425.82617188 C388.41532059 425.83800512 385.11393197 425.85449029 381.8125 425.875 Z M519.8125 425.875 C520.45924118 440.8282204 521.24696709 455.76193546 522.1875 470.69921875 C522.31824508 472.79050906 522.44894068 474.88180246 522.57958984 476.97309875 C522.85052226 481.30157019 523.12301425 485.62994015 523.39648438 489.95825195 C523.74687366 495.50827828 524.09171134 501.0586353 524.43527222 506.60908794 C524.70190268 510.90280945 524.97216403 515.19629668 525.24346924 519.48972511 C525.3723549 521.53861164 525.49992807 523.58758117 525.62615967 525.63663292 C525.8016494 528.47895826 525.98220146 531.32091801 526.1640625 534.1628418 C526.21500061 535.00581314 526.26593872 535.84878448 526.31842041 536.71730042 C526.53025876 539.95983214 526.78009344 542.77778031 527.8125 545.875 C534.4125 545.875 541.0125 545.875 547.8125 545.875 C547.8125 506.275 547.8125 466.675 547.8125 425.875 C538.5725 425.875 529.3325 425.875 519.8125 425.875 Z M555.8125 440.875 C555.8125 442.525 555.8125 444.175 555.8125 445.875 C556.1425 445.875 556.4725 445.875 556.8125 445.875 C556.8125 444.225 556.8125 442.575 556.8125 440.875 C556.4825 440.875 556.1525 440.875 555.8125 440.875 Z M475.6875 480.6875 C472.79768679 482.64943389 470.05595427 484.32627246 466.8125 485.625 C463.71073024 486.5338563 463.71073024 486.5338563 462.8125 488.875 C462.60844621 490.51050833 462.45689848 492.1527094 462.33178711 493.79614258 C462.25177963 494.82093216 462.17177216 495.84572174 462.08934021 496.90156555 C462.00700638 498.01299423 461.92467255 499.12442291 461.83984375 500.26953125 C461.75247452 501.40903732 461.66510529 502.5485434 461.5750885 503.72257996 C461.39076853 506.13757534 461.20848927 508.55272719 461.02807617 510.96801758 C460.75190704 514.66199192 460.46927537 518.35542751 460.18554688 522.04882812 C460.00742953 524.3932001 459.82968301 526.73760029 459.65234375 529.08203125 C459.56798569 530.18738724 459.48362762 531.29274323 459.39671326 532.43159485 C459.31985794 533.46584091 459.24300262 534.50008698 459.16381836 535.56567383 C459.09577499 536.47231277 459.02773163 537.37895172 458.95762634 538.31306458 C458.81504127 540.83013859 458.8125 543.3538907 458.8125 545.875 C467.3925 545.875 475.9725 545.875 484.8125 545.875 C483.99597344 523.17556151 482.37395898 500.53304778 480.8125 477.875 C478.88477553 477.875 477.20579723 479.62983871 475.6875 480.6875 Z M348.8125 501.875 C348.37679688 502.73222656 347.94109375 503.58945312 347.4921875 504.47265625 C341.34258321 516.27936406 335.78107966 522.89071017 323.8125 528.875 C323.4825 534.485 323.1525 540.095 322.8125 545.875 C333.0425 545.875 343.2725 545.875 353.8125 545.875 C353.36857312 535.51670619 352.85217113 525.19744571 351.875 514.875 C351.80039551 514.03356445 351.72579102 513.19212891 351.64892578 512.32519531 C351.57013184 511.53725586 351.49133789 510.74931641 351.41015625 509.9375 C351.34320557 509.24785156 351.27625488 508.55820312 351.20727539 507.84765625 C350.75877567 505.60654447 349.91188385 503.86911445 348.8125 501.875 Z M57.8125 525.875 C55.77407728 529.40351593 53.78398279 532.95516587 51.83105469 536.53173828 C51.16411099 537.73869536 50.48544743 538.93926759 49.79394531 540.13232422 C44.25199329 549.72167852 42.94184085 557.88921634 43.8125 568.875 C43.93745072 570.79319211 44.06071136 572.71149478 44.18261719 574.62988281 C44.54461237 580.05173552 44.96741524 585.46713043 45.41162109 590.8828125 C45.68639035 594.23645634 45.95140504 597.5907615 46.21484375 600.9453125 C47.19666084 613.28318493 48.34421666 625.58529062 49.8125 637.875 C50.1425 637.875 50.4725 637.875 50.8125 637.875 C53.42737385 613.9417575 55.39218322 589.98642464 56.9289093 565.96222687 C57.06213184 563.88075213 57.196477 561.79935195 57.33093262 559.71795654 C57.58512292 555.77062104 57.83249812 551.82287824 58.078125 547.875 C58.15293091 546.6952359 58.22773682 545.5154718 58.30480957 544.29995728 C58.67824686 538.14410839 58.88926213 532.04210249 58.8125 525.875 C58.4825 525.875 58.1525 525.875 57.8125 525.875 Z M264.8125 553.875 C265.62619012 557.77201276 266.44263604 561.66829077 267.26611328 565.56323242 C267.54507914 566.8867848 267.82244625 568.21067524 268.09814453 569.53491211 C268.49605574 571.44474224 268.9003086 573.35324759 269.3046875 575.26171875 C269.54558105 576.40858154 269.78647461 577.55544434 270.03466797 578.73706055 C270.74315026 581.59522845 271.64188939 584.17817819 272.8125 586.875 C273.1425 586.875 273.4725 586.875 273.8125 586.875 C274.48968814 582.87670835 275.15233508 578.87613468 275.8125 574.875 C276.09867187 573.18697266 276.09867187 573.18697266 276.390625 571.46484375 C277.36442353 565.517717 278.0488225 559.90122377 277.8125 553.875 C273.5225 553.875 269.2325 553.875 264.8125 553.875 Z M321.8125 553.875 C320.60125976 559.93120119 319.43207504 565.93149662 318.48046875 572.0234375 C318.24019687 573.52906939 317.99928854 575.03459983 317.7578125 576.54003906 C317.63438477 577.30997192 317.51095703 578.07990479 317.38378906 578.87316895 C310.15589207 623.63601322 310.15589207 623.63601322 299.8125 640.875 C299.8125 651.765 299.8125 662.655 299.8125 673.875 C322.2525 673.875 344.6925 673.875 367.8125 673.875 C366.8225 666.615 365.8325 659.355 364.8125 651.875 C363.99517056 645.20981022 363.19471384 638.54670574 362.4375 631.875 C362.33466705 630.97519409 362.23183411 630.07538818 362.12588501 629.14831543 C359.27677703 604.09790373 357.05790382 578.98530315 354.8125 553.875 C343.9225 553.875 333.0325 553.875 321.8125 553.875 Z M396.8125 553.875 C399.07044295 581.59485282 401.53434302 609.25573693 404.8125 636.875 C405.8025 636.38 405.8025 636.38 406.8125 635.875 C407.3205908 634.05719668 407.3205908 634.05719668 407.54272461 631.83129883 C407.65310562 630.96622208 407.76348663 630.10114532 407.87721252 629.20985413 C408.04433998 627.7853318 408.04433998 627.7853318 408.21484375 626.33203125 C408.33725937 625.3480687 408.45967499 624.36410614 408.58580017 623.35032654 C408.9834073 620.13047106 409.36714547 616.90914031 409.75 613.6875 C410.01734431 611.48986057 410.28508583 609.29226943 410.55322266 607.09472656 C414.24231309 580.55724658 414.24231309 580.55724658 415.8125 553.875 C409.5425 553.875 403.2725 553.875 396.8125 553.875 Z M457.8125 553.875 C457.44898438 557.70738281 457.08546875 561.53976562 456.7109375 565.48828125 C454.38410393 589.7262933 452.05138752 613.94987111 448.625 638.0625 C448.44490387 639.33681381 448.44490387 639.33681381 448.26116943 640.63687134 C447.91535175 643.06475141 447.56327243 645.49159754 447.20703125 647.91796875 C447.11030624 648.58037567 447.01358124 649.24278259 446.91392517 649.92526245 C445.70564932 657.93876387 444.22186751 665.88858409 442.8125 673.875 C458.6525 673.875 474.4925 673.875 490.8125 673.875 C490.84489311 659.25894365 490.84489311 659.25894365 490.36938477 644.68359375 C490.32222321 643.7088208 490.27506165 642.73404785 490.22647095 641.72973633 C490.07338462 638.59042004 489.91392863 635.45146973 489.75390625 632.3125 C489.64393929 630.10100582 489.53423862 627.88949838 489.42478943 625.67797852 C489.19650331 621.08594884 488.96502771 616.49409453 488.73120117 611.90234375 C488.43136491 606.00912372 488.1397226 600.11553037 487.85038853 594.2217865 C487.6262933 589.67504517 487.3979481 585.12852507 487.16828728 580.58206177 C487.05892014 578.40673409 486.95088882 576.23133884 486.84420967 574.05587769 C486.6954751 571.03571138 486.54103007 568.01589122 486.38500977 564.99609375 C486.34185135 564.09648926 486.29869293 563.19688477 486.25422668 562.27001953 C486.13710957 557.93461676 486.13710957 557.93461676 484.8125 553.875 C475.9025 553.875 466.9925 553.875 457.8125 553.875 Z M527.8125 553.875 C528.51326956 574.88079808 529.4982669 595.86854438 530.54199219 616.85961914 C530.76975008 621.44131798 530.9941086 626.02317642 531.21757507 630.60508633 C531.39286359 634.1904873 531.57007329 637.77579142 531.74783325 641.36107063 C531.83136575 643.05089345 531.91429081 644.74074643 531.99655151 646.43063164 C532.44378093 655.59745898 532.98531604 664.73251265 533.8125 673.875 C538.4325 673.875 543.0525 673.875 547.8125 673.875 C547.8125 634.275 547.8125 594.675 547.8125 553.875 C541.2125 553.875 534.6125 553.875 527.8125 553.875 Z M534.8125 681.875 C534.52933371 693.69247328 535.47802152 705.36503601 536.41162109 717.13867188 C536.68571192 720.60240379 536.95087591 724.06673352 537.21484375 727.53125 C538.15444116 739.68267998 539.24406418 751.78770055 540.8125 763.875 C541.1425 763.875 541.4725 763.875 541.8125 763.875 C544.76081812 735.81043639 544.76081812 735.81043639 547.0625 707.6875 C547.14226074 706.57028564 547.22202148 705.45307129 547.30419922 704.30200195 C547.79588224 696.81377167 547.87422018 689.37914552 547.8125 681.875 C543.5225 681.875 539.2325 681.875 534.8125 681.875 Z " fill="#F1C051" transform="translate(216.1875,90.125)"/>
<path d="M0 0 C2.16844428 3.25266642 2.35181783 4.62812639 2.625 8.4375 C2.73714844 9.85869141 2.73714844 9.85869141 2.8515625 11.30859375 C3.06172779 16.53507269 3 21.76929722 3 27 C11.25 27 19.5 27 28 27 C29.98 30.96 29.98 30.96 32 35 C22.76 35 13.52 35 4 35 C4.29890137 38.15925049 4.59780273 41.31850098 4.90576172 44.57348633 C5.98751914 56.31188031 6.78070854 68.05936575 7.5078125 79.82421875 C7.63923476 81.91552723 7.77090284 84.00682027 7.90280151 86.09809875 C8.17517799 90.42636921 8.44559904 94.75475524 8.71435547 99.08325195 C9.05900714 104.63370856 9.40723741 110.18393336 9.75671577 115.73408794 C10.09164321 121.05572138 10.42477745 126.37746662 10.7578125 131.69921875 C10.82121952 132.70981543 10.88462654 133.7204121 10.94995499 134.76163292 C11.12795485 137.6036414 11.30466899 140.44572669 11.48095703 143.2878418 C11.53391937 144.13081314 11.58688171 144.97378448 11.64144897 145.84230042 C11.83005032 148.90018827 12 151.93545854 12 155 C18.6 155 25.2 155 32 155 C32 115.73 32 76.46 32 36 C34.93565723 39.66957154 36.60418801 41.94007033 38.4375 46 C40.46315934 50.15567083 42.45640774 52.95086248 46 56 C46.57492187 56.55300781 47.14984375 57.10601563 47.7421875 57.67578125 C55.77365384 65.20729688 64.23789455 68.97915857 75.1875 69.5625 C76.31188477 69.62727539 76.31188477 69.62727539 77.45898438 69.69335938 C79.30578375 69.79922685 81.15286834 69.9000976 83 70 C82.75976631 78.72024455 82.51648526 87.44039759 82.26950932 96.1604538 C82.15487099 100.21125999 82.04121047 104.2620883 81.92993164 108.31298828 C81.82213117 112.2358651 81.71157033 116.15865598 81.59924126 120.08140564 C81.55723907 121.56417695 81.51616564 123.04697492 81.4761219 124.52980042 C81.41905779 126.63648553 81.35842326 128.74304388 81.29711914 130.84960938 C81.26380997 132.03985718 81.23050079 133.23010498 81.19618225 134.4564209 C80.90028088 141.30949382 80.42788124 148.15390011 80 155 C107.72 155 135.44 155 164 155 C164 157.64 164 160.28 164 163 C136.28 163 108.56 163 80 163 C79.71125 172.755625 79.4225 182.51125 79.125 192.5625 C78.94405471 198.5209309 78.76282263 204.47931259 78.57421875 210.4375 C78.53964349 211.52982941 78.53964349 211.52982941 78.50436974 212.64422607 C78.05444163 226.78664021 77.53316699 240.92542314 76.9375 255.0625 C76.87746796 256.52467453 76.87746796 256.52467453 76.81622314 258.01638794 C76.70301591 260.7519961 76.58494879 263.48734321 76.46484375 266.22265625 C76.43260208 267.00314331 76.40036041 267.78363037 76.36714172 268.58776855 C76.33356064 269.32072144 76.29997955 270.05367432 76.26538086 270.80883789 C76.22446571 271.74053551 76.22446571 271.74053551 76.182724 272.6910553 C75.90985206 276.13913117 75.42901831 279.5678535 75 283 C104.37 283 133.74 283 164 283 C164 285.64 164 288.28 164 291 C134.63 291 105.26 291 75 291 C74.5875 298.239375 74.175 305.47875 73.75 312.9375 C66.59327402 431.98673104 66.59327402 431.98673104 42 454 C34.77798895 458.8019368 27.48930143 459.77790412 19 459 C10.6305243 457.0704733 4.54823581 452.60317934 -0.03955078 445.35839844 C-21.09418186 409.46739373 -19.84277721 358.40146912 -22.75 318 C-22.8151178 317.09759583 -22.8802356 316.19519165 -22.94732666 315.26544189 C-23.13049639 312.6980629 -23.30866772 310.13039957 -23.484375 307.5625 C-23.56372787 306.43695206 -23.56372787 306.43695206 -23.64468384 305.28866577 C-23.71566788 304.21958481 -23.71566788 304.21958481 -23.78808594 303.12890625 C-23.84993073 302.21733765 -23.84993073 302.21733765 -23.9130249 301.28735352 C-24.04332533 297.86058952 -24 294.42924039 -24 291 C-40.83 291 -57.66 291 -75 291 C-75.66 294.3 -76.32 297.6 -77 301 C-78.07528723 303.87606945 -79.16296603 306.59862665 -80.4375 309.375 C-80.73720703 310.05949219 -81.03691406 310.74398438 -81.34570312 311.44921875 C-83.6808294 316.66652909 -83.6808294 316.66652909 -85.58259583 318.65350342 C-87.79066988 322.30894504 -87.4393333 325.88971197 -87.43237305 330.08300781 C-87.4425647 331.00042755 -87.45275635 331.91784729 -87.46325684 332.86306763 C-87.49343264 335.89314851 -87.50265986 338.92291348 -87.51171875 341.953125 C-87.52856202 344.05492202 -87.54671178 346.15670895 -87.56611633 348.25848389 C-87.61366058 353.78878627 -87.64344142 359.31904773 -87.66955566 364.8494873 C-87.69933879 370.49349043 -87.74587685 376.13735249 -87.79101562 381.78125 C-87.87709914 392.85409294 -87.94442205 403.92696487 -88 415 C-90.64 415 -93.28 415 -96 415 C-96.33 387.28 -96.66 359.56 -97 331 C-99.97 331.99 -102.94 332.98 -106 334 C-114.11818159 335.29657289 -120.92940781 332.95697779 -127.90234375 328.890625 C-138.44435556 321.14547346 -143.01222051 306.13785416 -146 294 C-146 293.01 -146 292.02 -146 291 C-169.1 291 -192.2 291 -216 291 C-216 331.92 -216 372.84 -216 415 C-218.64 415 -221.28 415 -224 415 C-224 374.08 -224 333.16 -224 291 C-264.92 291 -305.84 291 -348 291 C-348 288.36 -348 285.72 -348 283 C-307.08 283 -266.16 283 -224 283 C-224 275.41 -224 267.82 -224 260 C-227.96 261.98 -227.96 261.98 -232 264 C-234.4375 264.75 -234.4375 264.75 -237 265 C-237.96679688 265.09474609 -237.96679688 265.09474609 -238.953125 265.19140625 C-247.35423152 265.64671097 -254.14287591 262.83061803 -260.625 257.5625 C-280.51898282 238.4027415 -285.92996515 204.35596425 -291.5 178.5 C-291.7676416 177.28957031 -292.0352832 176.07914063 -292.31103516 174.83203125 C-293.68897308 168.1581407 -294.25958091 162.68160896 -293 156 C-292.64808785 153.80755615 -292.2980121 151.61481718 -291.94921875 149.421875 C-291.74723877 148.19750732 -291.54525879 146.97313965 -291.3371582 145.71166992 C-289.11909748 132.24247879 -287.2677595 118.76065092 -285.8125 105.1875 C-285.72948639 104.41323669 -285.64647278 103.63897339 -285.5609436 102.84124756 C-284.33197218 91.23906553 -283.34240228 79.63085649 -282.68286133 67.98120117 C-282.61993896 66.96388916 -282.5570166 65.94657715 -282.4921875 64.8984375 C-282.44433105 64.01849121 -282.39647461 63.13854492 -282.34716797 62.23193359 C-282 60 -282 60 -280 57 C-262.41157468 86.480363 -257.24575941 120.58142682 -252 154 C-246.72 154.33 -241.44 154.66 -236 155 C-236.01804687 153.70457275 -236.03609375 152.40914551 -236.0546875 151.07446289 C-236.05281161 146.2708478 -235.65685883 141.57888625 -235.125 136.80859375 C-235.03621582 135.97787857 -234.94743164 135.14716339 -234.85595703 134.29127502 C-234.57508672 131.67284735 -234.28766345 129.05518915 -234 126.4375 C-233.80685537 124.64783349 -233.61414309 122.85812027 -233.421875 121.06835938 C-232.95290738 116.71168417 -232.47806694 112.35568571 -232 108 C-229.57062437 111.14135439 -227.86745674 114.20730358 -226.1875 117.8125 C-222.00885934 126.25191677 -217.428774 131.6508245 -209 136 C-205.53287889 137.15570704 -202.4585044 137.32835293 -198.8125 137.5625 C-197.54019531 137.64628906 -196.26789063 137.73007812 -194.95703125 137.81640625 C-193.98121094 137.87699219 -193.00539063 137.93757812 -192 138 C-191.97222486 139.33320679 -191.95326659 140.66659713 -191.9375 142 C-191.92589844 142.7425 -191.91429687 143.485 -191.90234375 144.25 C-192.03017385 147.84969573 -192.55323126 151.42585009 -193 155 C-182.77 155 -172.54 155 -162 155 C-162.28875 152.2053125 -162.5775 149.410625 -162.875 146.53125 C-163.1539626 143.80413397 -163.43153884 141.07688011 -163.70898438 138.34960938 C-163.90154722 136.46404431 -164.09553583 134.57862426 -164.29101562 132.69335938 C-164.57282548 129.97303162 -164.84938989 127.25221204 -165.125 124.53125 C-165.21249512 123.69758911 -165.29999023 122.86392822 -165.39013672 122.00500488 C-166.79712306 107.94575758 -166.79712306 107.94575758 -164.49609375 102.390625 C-164.00870728 101.15904663 -164.00870728 101.15904663 -163.51147461 99.90258789 C-163.15706299 99.02723389 -162.80265137 98.15187988 -162.4375 97.25 C-151.98998913 69.79599242 -147.02122741 40.02927389 -143 11 C-142.34 11 -141.68 11 -141 11 C-139.35 15.95 -137.7 20.9 -136 26 C-126.43 26.33 -116.86 26.66 -107 27 C-106.01 30.96 -106.01 30.96 -105 35 C-114.57 35 -124.14 35 -134 35 C-133.278125 38.320625 -132.55625 41.64125 -131.8125 45.0625 C-125.27256173 77.08772656 -122.8186461 109.85858357 -119.91796875 142.36328125 C-119.82448654 143.41037262 -119.73100433 144.45746399 -119.63468933 145.5362854 C-119.55052261 146.49279999 -119.4663559 147.44931458 -119.37963867 148.43481445 C-119.26902351 149.69066093 -119.26902351 149.69066093 -119.15617371 150.97187805 C-119 153 -119 153 -119 155 C-112.4 155 -105.8 155 -99 155 C-99.01981934 153.43040527 -99.03963867 151.86081055 -99.06005859 150.24365234 C-99.05945115 144.15405928 -98.58164095 138.16279761 -98.0390625 132.1015625 C-96.85782598 117.86313405 -96.56134518 103.65564063 -96.375 89.375 C-96.33666375 86.89191576 -96.2976041 84.40884259 -96.2578125 81.92578125 C-96.16358764 75.95062172 -96.07809253 69.97539108 -96 64 C-93.74275312 66.93744925 -92.02887912 69.80756994 -90.375 73.125 C-85.12461276 82.84601401 -77.71573132 91.42808956 -67 95 C-64.43365139 95.22718496 -61.88321893 95.41608184 -59.3125 95.5625 C-58.2596582 95.62727539 -58.2596582 95.62727539 -57.18554688 95.69335938 C-55.45724794 95.7991736 -53.7286489 95.90006581 -52 96 C-52.54693638 103.5992011 -53.09878734 111.19803384 -53.65405273 118.79663086 C-53.84235945 121.38150956 -54.02954191 123.96647043 -54.21557617 126.55151367 C-54.48320559 130.26763742 -54.75487966 133.98344674 -55.02734375 137.69921875 C-55.10967758 138.85459641 -55.19201141 140.00997406 -55.27684021 141.20036316 C-55.35684769 142.28110611 -55.43685516 143.36184906 -55.51928711 144.4753418 C-55.58812607 145.42354294 -55.65696503 146.37174408 -55.72789001 147.34867859 C-55.99185298 149.92061895 -56.49295146 152.46475732 -57 155 C-48.42 155 -39.84 155 -31 155 C-31.433125 150.2975 -31.433125 150.2975 -31.875 145.5 C-32.69786677 136.19802785 -33.39077275 126.88877621 -33.99127197 117.57006836 C-34.12127981 115.5575874 -34.25564421 113.54538936 -34.39013672 111.53320312 C-34.63073351 107.68946357 -34.83158962 103.84756698 -35 100 C-35.02999084 99.32110718 -35.05998169 98.64221436 -35.09088135 97.94274902 C-35.17071052 95.90450402 -35.22270801 93.86745022 -35.265625 91.828125 C-35.29688477 90.6309082 -35.32814453 89.43369141 -35.36035156 88.20019531 C-34.82858039 83.47766377 -32.55646965 81.25388072 -29.4140625 77.8671875 C-16.10584445 62.06098678 -10.55638872 39.4828792 -5.94140625 19.78125 C-4.27631365 13.09324319 -2.12634776 6.55333407 0 0 Z M-251 163 C-250.18630988 166.89701276 -249.36986396 170.79329077 -248.54638672 174.68823242 C-248.26742086 176.0117848 -247.99005375 177.33567524 -247.71435547 178.65991211 C-247.31644426 180.56974224 -246.9121914 182.47824759 -246.5078125 184.38671875 C-246.26691895 185.53358154 -246.02602539 186.68044434 -245.77783203 187.86206055 C-245.06934974 190.72022845 -244.17061061 193.30317819 -243 196 C-242.67 196 -242.34 196 -242 196 C-241.32281186 192.00170835 -240.66016492 188.00113468 -240 184 C-239.71382812 182.31197266 -239.71382812 182.31197266 -239.421875 180.58984375 C-238.44807647 174.642717 -237.7636775 169.02622377 -238 163 C-242.29 163 -246.58 163 -251 163 Z M-194 163 C-195.21124024 169.05620119 -196.38042496 175.05649662 -197.33203125 181.1484375 C-197.57230313 182.65406939 -197.81321146 184.15959983 -198.0546875 185.66503906 C-198.17811523 186.43497192 -198.30154297 187.20490479 -198.42871094 187.99816895 C-205.65660793 232.76101322 -205.65660793 232.76101322 -216 250 C-216 260.89 -216 271.78 -216 283 C-193.56 283 -171.12 283 -148 283 C-148.99 275.74 -149.98 268.48 -151 261 C-151.81732944 254.33481022 -152.61778616 247.67170574 -153.375 241 C-153.47783295 240.10019409 -153.58066589 239.20038818 -153.68661499 238.27331543 C-156.53572297 213.22290373 -158.75459618 188.11030315 -161 163 C-171.89 163 -182.78 163 -194 163 Z M-119 163 C-116.74205705 190.71985282 -114.27815698 218.38073693 -111 246 C-110.01 245.505 -110.01 245.505 -109 245 C-108.4919092 243.18219668 -108.4919092 243.18219668 -108.26977539 240.95629883 C-108.15939438 240.09122208 -108.04901337 239.22614532 -107.93528748 238.33485413 C-107.76816002 236.9103318 -107.76816002 236.9103318 -107.59765625 235.45703125 C-107.47524063 234.4730687 -107.35282501 233.48910614 -107.22669983 232.47532654 C-106.8290927 229.25547106 -106.44535453 226.03414031 -106.0625 222.8125 C-105.79515569 220.61486057 -105.52741417 218.41726943 -105.25927734 216.21972656 C-101.57018691 189.68224658 -101.57018691 189.68224658 -100 163 C-106.27 163 -112.54 163 -119 163 Z M-58 163 C-58.36351562 166.83238281 -58.72703125 170.66476562 -59.1015625 174.61328125 C-61.42839607 198.8512933 -63.76111248 223.07487111 -67.1875 247.1875 C-67.36759613 248.46181381 -67.36759613 248.46181381 -67.55133057 249.76187134 C-67.89714825 252.18975141 -68.24922757 254.61659754 -68.60546875 257.04296875 C-68.70219376 257.70537567 -68.79891876 258.36778259 -68.89857483 259.05026245 C-70.10685068 267.06376387 -71.59063249 275.01358409 -73 283 C-57.16 283 -41.32 283 -25 283 C-24.96760689 268.38394365 -24.96760689 268.38394365 -25.44311523 253.80859375 C-25.49027679 252.8338208 -25.53743835 251.85904785 -25.58602905 250.85473633 C-25.73911538 247.71542004 -25.89857137 244.57646973 -26.05859375 241.4375 C-26.16856071 239.22600582 -26.27826138 237.01449838 -26.38771057 234.80297852 C-26.61599669 230.21094884 -26.84747229 225.61909453 -27.08129883 221.02734375 C-27.38113509 215.13412372 -27.6727774 209.24053037 -27.96211147 203.3467865 C-28.1862067 198.80004517 -28.4145519 194.25352507 -28.64421272 189.70706177 C-28.75357986 187.53173409 -28.86161118 185.35633884 -28.96829033 183.18087769 C-29.1170249 180.16071138 -29.27146993 177.14089122 -29.42749023 174.12109375 C-29.47064865 173.22148926 -29.51380707 172.32188477 -29.55827332 171.39501953 C-29.67539043 167.05961676 -29.67539043 167.05961676 -31 163 C-39.91 163 -48.82 163 -58 163 Z M12 163 C12.70076956 184.00579808 13.6857669 204.99354438 14.72949219 225.98461914 C14.95725008 230.56631798 15.1816086 235.14817642 15.40507507 239.73008633 C15.58036359 243.3154873 15.75757329 246.90079142 15.93533325 250.48607063 C16.01886575 252.17589345 16.10179081 253.86574643 16.18405151 255.55563164 C16.63128093 264.72245898 17.17281604 273.85751265 18 283 C22.62 283 27.24 283 32 283 C32 243.4 32 203.8 32 163 C25.4 163 18.8 163 12 163 Z M19 291 C18.71683371 302.81747328 19.66552152 314.49003601 20.59912109 326.26367188 C20.87321192 329.72740379 21.13837591 333.19173352 21.40234375 336.65625 C22.34194116 348.80767998 23.43156418 360.91270055 25 373 C25.33 373 25.66 373 26 373 C28.94831812 344.93543639 28.94831812 344.93543639 31.25 316.8125 C31.32976074 315.69528564 31.40952148 314.57807129 31.49169922 313.42700195 C31.98338224 305.93877167 32.06172018 298.50414552 32 291 C27.71 291 23.42 291 19 291 Z " fill="#5FC4D7" transform="translate(732,481)"/>
<path d="M0 0 C15.75352271 12.303083 18.23892971 37.44441889 20.52734375 55.86279297 C25.13626219 94.18378092 26.86774902 132.76785524 28.6011467 171.30350113 C28.70185273 173.53817456 28.80365144 175.77279635 28.9055481 178.00741577 C29.61325701 193.61155471 30.25415401 209.19212487 30.015625 224.81640625 C29.35095215 224.91800049 28.6862793 225.01959473 28.00146484 225.12426758 C15.28571023 227.16904508 6.19615629 233.29302744 -1.37939453 243.74023438 C-3.68001419 247.07538207 -5.88342796 250.46388642 -8.05078125 253.88671875 C-9.00791016 255.33691406 -9.00791016 255.33691406 -9.984375 256.81640625 C-10.314375 256.81640625 -10.644375 256.81640625 -10.984375 256.81640625 C-11.01529739 256.10582062 -11.04621979 255.39523499 -11.07807922 254.66311646 C-11.48078055 245.42238828 -11.88736597 236.18183498 -12.296875 226.94140625 C-12.3299387 226.1952795 -12.3630024 225.44915276 -12.39706802 224.68041611 C-13.77085876 193.7172223 -15.32817769 162.76580126 -16.984375 131.81640625 C-18.87575464 160.0735775 -20.39616778 188.3355406 -21.609375 216.62890625 C-21.6406461 217.35509029 -21.67191719 218.08127434 -21.70413589 218.82946396 C-21.88784586 223.09730933 -22.06957201 227.36523281 -22.24872017 231.63327217 C-22.30658857 233.01179607 -22.36470562 234.39030955 -22.42307854 235.76881218 C-22.73398469 243.13429136 -23.01361833 250.49954255 -23.22167969 257.86865234 C-23.25989838 259.1475383 -23.29811707 260.42642426 -23.3374939 261.74406433 C-23.40716788 264.14091438 -23.46954797 266.53799255 -23.52310181 268.93525696 C-23.75741392 276.87878193 -24.4044658 283.10566499 -29.109375 289.75390625 C-29.64820313 290.52605469 -30.18703125 291.29820312 -30.7421875 292.09375 C-31.15210938 292.66222656 -31.56203125 293.23070312 -31.984375 293.81640625 C-36.19306936 292.41350813 -37.17447629 289.46397637 -39.171875 285.75390625 C-39.57059814 285.0271167 -39.96932129 284.30032715 -40.38012695 283.55151367 C-43.20547627 278.36039023 -46.0159387 273.14499996 -48.53474426 267.79675293 C-50.63532396 263.35664487 -52.96204451 259.15289676 -55.4987793 254.94580078 C-66.90827022 235.12460856 -67.3680894 218.83887755 -65.33105469 196.42956161 C-64.95330913 192.08320607 -64.66730776 187.73070886 -64.37109375 183.37817383 C-63.88678715 176.41803182 -63.35284758 169.46367688 -62.77441406 162.51074219 C-62.06394693 153.96364711 -61.46336188 145.4144274 -60.9140625 136.85546875 C-54.12109861 32.95333063 -54.12109861 32.95333063 -37.984375 7.81640625 C-37.406875 6.88828125 -36.829375 5.96015625 -36.234375 5.00390625 C-26.15941371 -4.79119501 -12.36181394 -7.37328666 0 0 Z " fill="#5FC4D7" transform="translate(840.984375,214.18359375)"/>
<path d="M0 0 C2.64 0 5.28 0 8 0 C8 40.92 8 81.84 8 124 C47.6 124 87.2 124 128 124 C128 83.08 128 42.16 128 0 C130.64 0 133.28 0 136 0 C136 40.92 136 81.84 136 124 C176.92 124 217.84 124 260 124 C260 126.64 260 129.28 260 132 C219.08 132 178.16 132 136 132 C136 171.6 136 211.2 136 252 C178.24 252 220.48 252 264 252 C264 265.53 264 279.06 264 293 C254.32316509 280.09755345 256 279.14814905 256 260 C216.4 260 176.8 260 136 260 C136 265.61 136 271.22 136 277 C135.67 277 135.34 277 135 277 C134.85900879 276.2793335 134.71801758 275.55866699 134.57275391 274.81616211 C133.92659548 271.52265929 133.27583781 268.23008117 132.625 264.9375 C132.40328125 263.80376953 132.1815625 262.67003906 131.953125 261.50195312 C131.73398437 260.39658203 131.51484375 259.29121094 131.2890625 258.15234375 C131.09006348 257.14163818 130.89106445 256.13093262 130.68603516 255.08959961 C130.05692818 251.98361279 130.05692818 251.98361279 128.97131348 249.00488281 C127.53996535 244.00401426 127.73699372 238.99579184 127.77294922 233.83227539 C127.77270815 232.71135467 127.77246708 231.59043394 127.7722187 230.43554592 C127.77370629 226.82283406 127.78891382 223.21033098 127.8046875 219.59765625 C127.80762965 217.36096292 127.80966903 215.12426822 127.81079102 212.88757324 C127.82125842 204.61252777 127.84918093 196.33751181 127.875 188.0625 C127.91625 169.561875 127.9575 151.06125 128 132 C88.4 132 48.8 132 8 132 C8 171.6 8 211.2 8 252 C21.53 252 35.06 252 49 252 C48.34 254.64 47.68 257.28 47 260 C34.13 260 21.26 260 8 260 C8 286.73 8 313.46 8 341 C7.67 341 7.34 341 7 341 C6.95512451 340.083396 6.91024902 339.16679199 6.86401367 338.22241211 C5.89373952 318.69730629 4.73104507 299.20370593 3.14135742 279.71850586 C2.81753533 275.7442731 2.51532952 271.76862562 2.21722412 267.79238892 C2.0667671 265.85828271 1.90752152 263.92484768 1.74127197 261.99203491 C-0.46418808 236.21068982 -0.23759184 210.44366739 -0.1373291 184.58807373 C-0.11652879 178.6401108 -0.10766383 172.69212977 -0.09765625 166.74414062 C-0.07648071 155.16271431 -0.04254291 143.58136623 0 132 C-0.55461914 132.0314209 -1.10923828 132.0628418 -1.68066406 132.09521484 C-4.20335792 132.2202417 -6.72540122 132.29805287 -9.25 132.375 C-10.12269531 132.42527344 -10.99539063 132.47554687 -11.89453125 132.52734375 C-14.39606111 132.58463069 -16.56012862 132.56313405 -19 132 C-23 127.55688623 -23 127.55688623 -23 124 C-15.41 124 -7.82 124 0 124 C0 83.08 0 42.16 0 0 Z " fill="#6BE2CE" transform="translate(380,128)"/>
<path d="M0 0 C7.79486075 6.9013603 13.11095916 15.30678753 18.35717773 24.18530273 C19.10005995 25.42518506 19.84372064 26.66460127 20.58813477 27.90356445 C23.94276218 33.50237676 27.24353623 39.13011381 30.48608398 44.79467773 C30.98906006 45.67333496 31.49203613 46.55199219 32.01025391 47.45727539 C32.92585589 49.06707275 33.8340189 50.68113223 34.73339844 52.30004883 C36.60871738 55.62225866 37.81982489 57.66040084 41.04467773 59.81030273 C41.54276249 62.53634743 41.85880355 65.0607901 42.04467773 67.81030273 C42.09897949 68.51767578 42.15328125 69.22504883 42.20922852 69.95385742 C42.366842 72.19693556 42.49245611 74.43963274 42.60717773 76.68530273 C42.64963623 77.49523682 42.69209473 78.3051709 42.73583984 79.13964844 C43.14688842 87.69723323 43.13677373 96.24537527 43.04467773 104.81030273 C29.69717721 105.10437251 19.33497354 101.01308771 9.48217773 91.81030273 C-0.37596949 81.35209437 -6.73068716 68.01909154 -13.55151367 55.49243164 C-16.75641122 49.63072047 -20.03656801 43.9655699 -23.89990234 38.51074219 C-24.95532227 36.81030273 -24.95532227 36.81030273 -24.95532227 34.81030273 C-29.77516521 38.17092717 -32.64219917 42.27385388 -35.89282227 47.06030273 C-38.92235679 51.46192322 -41.95051933 55.86098765 -45.11157227 60.16967773 C-45.80283203 61.11278809 -45.80283203 61.11278809 -46.50805664 62.07495117 C-50.02960851 66.29748671 -53.63271656 68.45566206 -59.07641602 69.28686523 C-66.34409085 69.60613881 -71.51602747 68.76747822 -76.95532227 63.81030273 C-82.1037327 58.65060193 -84.10373624 55.05656738 -84.33032227 47.62280273 C-84.37930664 46.53612305 -84.42829102 45.44944336 -84.47875977 44.32983398 C-83.77393053 39.59064634 -81.68082939 36.67029649 -78.95532227 32.81030273 C-78.49625488 32.12846924 -78.0371875 31.44663574 -77.56420898 30.74414062 C-66.56435825 14.45068337 -53.94783984 -4.11661872 -33.58032227 -8.56469727 C-21.30212929 -10.3657298 -9.68345944 -7.94748912 0 0 Z " fill="#5FC4D7" transform="translate(175.955322265625,573.189697265625)"/>
<path d="M0 0 C12.24680199 9.01179769 16.49207266 25.29587236 19.59228516 39.45019531 C19.99543352 41.19868146 20.49682534 42.9240846 21.01953125 44.640625 C21.69061873 47.3848171 21.98103383 48.84076924 21.0703125 51.5234375 C18.35090993 54.12499929 15.39930813 56.18749666 12.27734375 58.26171875 C-2.15279075 68.43839095 -8.47011345 87.52006108 -13.9296875 103.5234375 C-15.9296875 100.5234375 -15.9296875 100.5234375 -16.9296875 97.5234375 C-16.97456299 98.15209717 -17.01943848 98.78075684 -17.06567383 99.4284668 C-18.4857395 118.76293507 -22.29175237 135.34197792 -28.9296875 153.5234375 C-29.9196875 153.5234375 -30.9096875 153.5234375 -31.9296875 153.5234375 C-38.80690171 134.20870823 -43.36533115 114.43880178 -47.66430664 94.4140625 C-49.04321135 88.10841293 -50.63493885 81.94369125 -52.5378418 75.77636719 C-55.17521511 67.22062569 -56.91450732 60.44468025 -54.9296875 51.5234375 C-54.5983934 49.82823531 -54.26772684 48.13291042 -53.9375 46.4375 C-50.2055832 28.1124251 -45.54324853 11.18732301 -29.9296875 -0.4765625 C-21.2043242 -5.9966903 -8.70605601 -5.20064732 0 0 Z " fill="#60C4D7" transform="translate(704.9296875,371.4765625)"/>
<path d="M0 0 C0.33 0 0.66 0 1 0 C1.495 12.375 1.495 12.375 2 25 C8.86612807 24.96041531 8.86612807 24.96041531 15.73217773 24.90991211 C17.00750366 24.90616577 17.00750366 24.90616577 18.30859375 24.90234375 C19.62041626 24.89448853 19.62041626 24.89448853 20.95874023 24.88647461 C23 25 23 25 24 26 C24 28.31 24 30.62 24 33 C16.74 33 9.48 33 2 33 C2.1539624 34.59400635 2.3079248 36.1880127 2.46655273 37.83032227 C2.97690512 43.45565569 3.29636279 49.07226918 3.53515625 54.71484375 C3.57813339 55.69183731 3.62111053 56.66883087 3.66539001 57.6754303 C3.7548492 59.72488965 3.84301555 61.77440583 3.92993164 63.82397461 C4.0620296 66.92645214 4.19968183 70.02864875 4.33789062 73.13085938 C4.42481301 75.1380064 4.51141221 77.14516746 4.59765625 79.15234375 C4.63826675 80.06209457 4.67887726 80.9718454 4.72071838 81.90916443 C5.0002062 88.62455603 5 95.26268152 5 102 C16.22 101.67 27.44 101.34 39 101 C39.02290595 106.9631823 39.04283396 112.92621311 39.05493164 118.8894043 C39.05997278 120.91968298 39.06680557 122.94995802 39.07543945 124.98022461 C39.08751467 127.89177347 39.09323034 130.8032745 39.09765625 133.71484375 C39.10281754 134.6283812 39.10797882 135.54191864 39.11329651 136.48313904 C39.11349168 138.65575427 39.06211805 140.82827296 39 143 C38 144 38 144 35.10838318 144.12025452 C33.81376663 144.11803391 32.51915009 144.11581329 31.18530273 144.11352539 C30.11706772 144.11374443 30.11706772 144.11374443 29.0272522 144.1139679 C26.66266888 144.1132687 24.29816339 144.10547606 21.93359375 144.09765625 C20.29834537 144.09579209 18.66309643 144.09436818 17.02784729 144.09336853 C12.71565215 144.08954318 8.40349048 144.07971275 4.09130859 144.06866455 C-0.30565946 144.0584508 -4.70263289 144.05387099 -9.09960938 144.04882812 C-17.73308831 144.03809049 -26.36654 144.02101387 -35 144 C-35.94559868 140.73700968 -36.21831155 137.6522806 -36.38891602 134.26367188 C-36.44890274 133.10726196 -36.50888947 131.95085205 -36.57069397 130.75939941 C-36.63115402 129.50848511 -36.69161407 128.2575708 -36.75390625 126.96875 C-36.81907944 125.66788452 -36.88425262 124.36701904 -36.95140076 123.0267334 C-37.08932623 120.26290057 -37.22425808 117.49894121 -37.35717773 114.73486328 C-37.49180751 111.94004892 -37.63039827 109.14548324 -37.77319336 106.35107422 C-39.11142405 80.1508017 -39.11142405 80.1508017 -39.3046875 67.3046875 C-39.32805679 66.50848999 -39.35142609 65.71229248 -39.37550354 64.89196777 C-39.39216621 61.47903626 -39.20843272 59.33907731 -37.40185547 56.40014648 C-35.5625 54.625 -35.5625 54.625 -33.328125 52.91796875 C-24.60520383 45.73180383 -19.18724679 32.134836 -13.75415039 22.4309082 C-2.69865124 2.69865124 -2.69865124 2.69865124 0 0 Z " fill="#5FC4D7" transform="translate(872,483)"/>
<path d="M0 0 C2.64 0 5.28 0 8 0 C8 40.92 8 81.84 8 124 C25.49 124 42.98 124 61 124 C59 129 59 129 57 132 C40.83 132 24.66 132 8 132 C8 171.6 8 211.2 8 252 C17.57 252 27.14 252 37 252 C37 254.64 37 257.28 37 260 C27.43 260 17.86 260 8 260 C8 299.6 8 339.2 8 380 C14.93 380 21.86 380 29 380 C29 382.64 29 385.28 29 388 C22.07 388 15.14 388 8 388 C8.33 400.87 8.66 413.74 9 427 C11.64 425.02 14.28 423.04 17 421 C19.96875 419.7578125 19.96875 419.7578125 22.5 419.125 C23.78390625 418.78855469 23.78390625 418.78855469 25.09375 418.4453125 C25.7228125 418.29835938 26.351875 418.15140625 27 418 C26.79223526 426.61294624 26.54289885 435.22331935 26.24104309 443.83343506 C26.10412454 447.76403305 25.97891997 451.69409048 25.88525391 455.62597656 C25.09836236 487.76204236 25.09836236 487.76204236 17.13183594 500.21630859 C15.90841771 502.14432705 14.79822792 504.11407135 13.6953125 506.11328125 C11.85232138 509.4440659 9.94856075 512.72994193 8 516 C7.67 516 7.34 516 7 516 C5.97904665 506.29088121 5.50694939 496.56092774 5.0625 486.8125 C4.99955246 485.45412018 4.99955246 485.45412018 4.93533325 484.06829834 C3.87332842 460.82547886 3.29417516 437.56632231 2.69750977 414.30786133 C2.62048044 411.32241452 2.54292263 408.33698204 2.46484375 405.3515625 C2.44594337 404.6281731 2.427043 403.90478371 2.40756989 403.15947342 C2.13135207 392.70136863 1.73306672 382.25420678 1.2253418 371.8046875 C0.85418059 364.10210497 0.62792445 356.39642046 0.4375 348.6875 C0.41632111 347.85277161 0.39514221 347.01804321 0.37332153 346.15802002 C-0.32794627 317.44818931 -0.08843528 288.71599842 0 260 C-0.66 260 -1.32 260 -2 260 C-2 257.36 -2 254.72 -2 252 C-1.34 252 -0.68 252 0 252 C0 212.4 0 172.8 0 132 C-2.31 132 -4.62 132 -7 132 C-7 129.36 -7 126.72 -7 124 C-4.69 124 -2.38 124 0 124 C0 83.08 0 42.16 0 0 Z " fill="#6BE2CE" transform="translate(252,128)"/>
<path d="M0 0 C0.66 0 1.32 0 2 0 C11.55943917 17.28834744 17.07332248 35.77256875 21.84106445 54.86791992 C24.63309171 68.30945814 24.63309171 68.30945814 31 80 C35.05192675 68.45200877 38.42504375 56.96597315 41 45 C43.46035646 47.46035646 43.48774884 48.74688661 44.04296875 52.14453125 C44.31741821 53.73382446 44.31741821 53.73382446 44.59741211 55.35522461 C44.79214111 56.49612549 44.98687012 57.63702637 45.1875 58.8125 C48.1951452 75.34483915 52.0884313 93.58400918 62.66796875 107.13671875 C64 109 64 109 64.0625 111.25 C61.65943787 117.46969023 56.84181071 122.53063627 52 127 C51.2575 127.70125 50.515 128.4025 49.75 129.125 C42.82991459 133.84324005 35.24206871 135.00179841 27 134 C15.33258148 131.29264322 7.26198142 124.20812037 0 115 C-0.50917969 114.45472656 -1.01835937 113.90945313 -1.54296875 113.34765625 C-9.04522815 104.08015935 -4.87161622 86.80375675 -4.07421875 75.84375 C-2.95039229 59.96847419 -2.14147168 44.08400597 -1.375 28.1875 C-1.24017082 25.42900752 -1.10446879 22.67055821 -0.96875 19.91210938 C-0.64283762 13.27488317 -0.32008037 6.63750988 0 0 Z " fill="#60C4D6" transform="translate(319,570)"/>
<path d="M0 0 C0.33 0 0.66 0 1 0 C1 10.89 1 21.78 1 33 C23.77 33 46.54 33 70 33 C70.33 35.64 70.66 38.28 71 41 C47.9 41 24.8 41 1 41 C1 81.92 1 122.84 1 165 C-1.64 165 -4.28 165 -7 165 C-7 124.08 -7 83.16 -7 41 C-47.92 41 -88.84 41 -131 41 C-131 38.36 -131 35.72 -131 33 C-90.08 33 -49.16 33 -7 33 C-7 24.75 -7 16.5 -7 8 C-3.535 4.04 -3.535 4.04 0 0 Z " fill="#6AE2CF" transform="translate(515,731)"/>
<path d="M0 0 C7.01965307 8.77456634 8.60021364 13.11197805 8.4609375 24.21484375 C8.46079147 25.43047501 8.46064545 26.64610626 8.460495 27.89857483 C8.45438419 31.21980183 8.42953558 34.53980016 8.39467239 37.86077881 C8.37494865 39.94292111 8.3628564 42.02496459 8.35348511 44.10717773 C8.25451675 66.07914628 7.75918571 88.03941767 7.0625 110 C7.04088554 110.68132366 7.01927109 111.36264732 6.99700165 112.06461716 C6.85094847 116.62669664 6.69559614 121.18840013 6.53515625 125.75 C6.49653976 126.87261734 6.45792328 127.99523468 6.4181366 129.15187073 C6.20952544 134.78873831 5.91374645 140.40771019 5.51147461 146.03417969 C4.91825495 154.63591637 4.6357308 163.24078779 4.36924744 171.85803986 C4.27887941 174.77976964 4.18527158 177.7013814 4.09094238 180.62298584 C3.89108255 186.83190061 3.69543075 193.04094452 3.5 199.25 C3.2729927 206.44435297 3.04417499 213.63864387 2.81248474 220.8328476 C2.72166487 223.67442425 2.63325807 226.51606849 2.54504395 229.35772705 C2.17878113 240.91476689 1.65506676 252.45573984 1 264 C0.67 264 0.34 264 0 264 C0 261.03 0 258.06 0 255 C-4.62 255 -9.24 255 -14 255 C-14 252.36 -14 249.72 -14 247 C-9.38 247 -4.76 247 0 247 C0 207.4 0 167.8 0 127 C-6.93 127 -13.86 127 -21 127 C-21 124.36 -21 121.72 -21 119 C-14.07 119 -7.14 119 0 119 C0 79.73 0 40.46 0 0 Z " fill="#6AE2CF" transform="translate(764,517)"/>
<path d="M0 0 C-0.20776474 8.61294624 -0.45710115 17.22331935 -0.75895691 25.83343506 C-0.89587546 29.76403305 -1.02108003 33.69409048 -1.11474609 37.62597656 C-1.90163764 69.76204236 -1.90163764 69.76204236 -9.86816406 82.21630859 C-11.09158229 84.14432705 -12.20177208 86.11407135 -13.3046875 88.11328125 C-15.14767862 91.4440659 -17.05143925 94.72994193 -19 98 C-19.33 98 -19.66 98 -20 98 C-21.78584726 81.55722599 -22.14457971 64.94553828 -22.78466797 48.42773438 C-22.91484903 45.07140043 -23.05734142 41.71627721 -23.21923828 38.36132812 C-23.40317843 34.51271091 -23.52068585 30.66416075 -23.625 26.8125 C-23.68437744 25.72396729 -23.74375488 24.63543457 -23.80493164 23.51391602 C-23.89402013 17.67372275 -23.12725601 14.45638043 -19.2890625 9.94921875 C-16.35114081 7.05205624 -13.56023367 4.67158639 -9.75 3 C-8.94046875 2.62875 -8.1309375 2.2575 -7.296875 1.875 C-2.375 0 -2.375 0 0 0 Z " fill="#62C4D5" transform="translate(279,546)"/>
<path d="M0 0 C-0.57352864 4.34405358 -1.30045957 8.60345053 -2.2043457 12.89404297 C-3.76919869 20.3221526 -5.15247846 27.76656497 -6.3515625 35.26171875 C-6.46913406 35.99584991 -6.58670563 36.72998108 -6.70783997 37.48635864 C-6.82753647 38.23400482 -6.94723297 38.981651 -7.07055664 39.75195312 C-9.24514183 53.32686554 -11.64013366 66.79244894 -14.75 80.1875 C-15.04366455 81.46995605 -15.3373291 82.75241211 -15.63989258 84.07373047 C-17.22439094 90.70031424 -17.22439094 90.70031424 -18 93 C-18.99 93.495 -18.99 93.495 -20 94 C-23.13444944 77.68151444 -25.57818225 61.39778309 -27.3125 44.875 C-27.3993103 44.06448181 -27.48612061 43.25396362 -27.57556152 42.41888428 C-30.15095369 18.14953527 -30.15095369 18.14953527 -27.34765625 12.9140625 C-18.99204753 4.54417069 -11.99982393 -0.23076584 0 0 Z " fill="#61C4D5" transform="translate(554,459)"/>
<path d="M0 0 C-1.98420643 29.39974087 -4.1730219 58.77468493 -8 88 C-8.66 87.67 -9.32 87.34 -10 87 C-10.53076172 84.70385742 -10.53076172 84.70385742 -10.9296875 81.60546875 C-11.0834082 80.43935059 -11.23712891 79.27323242 -11.39550781 78.07177734 C-11.63285645 76.14906006 -11.63285645 76.14906006 -11.875 74.1875 C-12.04488234 72.85363184 -12.21513686 71.51981104 -12.38574219 70.18603516 C-12.9420665 65.79285769 -13.47282097 61.39675667 -14 57 C-14.09406128 56.22025818 -14.18812256 55.44051636 -14.28503418 54.637146 C-14.86346181 49.83345275 -15.42940564 45.02849217 -15.98052979 40.22158813 C-16.15815462 38.67480368 -16.33759613 37.1282266 -16.51898193 35.58187866 C-18.85771227 15.52327178 -18.85771227 15.52327178 -18 9 C-15.7871943 6.34463316 -14.8805359 5.48888459 -12 4 C-11.32710938 3.61199219 -10.65421875 3.22398437 -9.9609375 2.82421875 C-6.24681777 0.80023215 -4.36289838 0 0 0 Z " fill="#63C4D3" transform="translate(411,518)"/>
<path d="M0 0 C29.7 0 59.4 0 90 0 C90 2.64 90 5.28 90 8 C60.3 8 30.6 8 0 8 C0 5.36 0 2.72 0 0 Z " fill="#6AE2CF" transform="translate(806,764)"/>
<path d="M0 0 C0 30.69 0 61.38 0 93 C-2.64 93 -5.28 93 -8 93 C-8.16236962 81.90810868 -8.28666014 70.8165012 -8.3626852 59.72366238 C-8.39917861 54.57242723 -8.44865749 49.42200661 -8.52807617 44.27124023 C-8.60427537 39.29801015 -8.64601957 34.32556219 -8.6641407 29.35179329 C-8.67704993 27.45672355 -8.70225991 25.56169544 -8.7401104 23.66695976 C-9.02517917 8.80228966 -9.02517917 8.80228966 -6.4302063 4.24026489 C-2.29458548 0 -2.29458548 0 0 0 Z " fill="#6AE2CF" transform="translate(644,803)"/>
<path d="M0 0 C28.05 0 56.1 0 85 0 C85 2.64 85 5.28 85 8 C56.95 8 28.9 8 0 8 C0 5.36 0 2.72 0 0 Z " fill="#6AE2CF" transform="translate(811,636)"/>
<path d="M0 0 C28.05 0 56.1 0 85 0 C85 2.64 85 5.28 85 8 C56.95 8 28.9 8 0 8 C0 5.36 0 2.72 0 0 Z " fill="#6BE2CE" transform="translate(128,508)"/>
<path d="M0 0 C2.64 0 5.28 0 8 0 C8 18.48 8 36.96 8 56 C0.18942131 48.18942131 0.18942131 48.18942131 -0.36076355 44.73468018 C-0.35410172 43.90861267 -0.34743988 43.08254517 -0.34057617 42.23144531 C-0.34034958 41.29077209 -0.34012299 40.35009888 -0.33988953 39.38092041 C-0.32440567 38.37349792 -0.30892181 37.36607544 -0.29296875 36.328125 C-0.28872391 35.29057068 -0.28447906 34.25301636 -0.28010559 33.184021 C-0.26332223 29.87241592 -0.22566992 26.56142093 -0.1875 23.25 C-0.17245275 21.00391504 -0.15876442 18.75782054 -0.14648438 16.51171875 C-0.11341986 11.00760459 -0.0632236 5.50384588 0 0 Z " fill="#6BE2CE" transform="translate(764,384)"/>
<path d="M0 0 C16.5 0 33 0 50 0 C50 2.64 50 5.28 50 8 C33.17 8 16.34 8 -1 8 C-0.67 5.36 -0.34 2.72 0 0 Z " fill="#6AE2CF" transform="translate(658,764)"/>
<path d="M0 0 C10.89 0 21.78 0 33 0 C33 2.64 33 5.28 33 8 C21.78 8 10.56 8 -1 8 C-0.67 5.36 -0.34 2.72 0 0 Z " fill="#6AE2CF" transform="translate(538,636)"/>
<path d="M0 0 C10.89 0 21.78 0 33 0 C33 2.64 33 5.28 33 8 C22.11 8 11.22 8 0 8 C0 5.36 0 2.72 0 0 Z " fill="#6BE2CE" transform="translate(453,508)"/>
<path d="M0 0 C9.9 0 19.8 0 30 0 C30.66 2.64 31.32 5.28 32 8 C22.1 8 12.2 8 2 8 C1.34 5.36 0.68 2.72 0 0 Z " fill="#6CE2CD" transform="translate(595,508)"/>
<path d="M0 0 C9.24 0 18.48 0 28 0 C28 2.64 28 5.28 28 8 C18.76 8 9.52 8 0 8 C0 5.36 0 2.72 0 0 Z " fill="#6AE2CF" transform="translate(674,636)"/>
<path d="M0 0 C9.24 0 18.48 0 28 0 C28 2.64 28 5.28 28 8 C18.76 8 9.52 8 0 8 C0 5.36 0 2.72 0 0 Z " fill="#6EE2CB" transform="translate(322,508)"/>
<path d="M0 0 C9.24 0 18.48 0 28 0 C28 2.64 28 5.28 28 8 C18.76 8 9.52 8 0 8 C0 5.36 0 2.72 0 0 Z " fill="#6DE2CC" transform="translate(128,252)"/>
<path d="M0 0 C8.25 0 16.5 0 25 0 C26.32 2.64 27.64 5.28 29 8 C19.43 8 9.86 8 0 8 C0 5.36 0 2.72 0 0 Z " fill="#6BE2CE" transform="translate(735,508)"/>
<path d="M0 0 C7.59 0 15.18 0 23 0 C23 2.64 23 5.28 23 8 C15.41 8 7.82 8 0 8 C0 5.36 0 2.72 0 0 Z " fill="#6DE2CD" transform="translate(128,380)"/>
<path d="M0 0 C3.64581687 -0.02887512 7.29160463 -0.04675585 10.9375 -0.0625 C12.49887695 -0.07506836 12.49887695 -0.07506836 14.09179688 -0.08789062 C15.57583008 -0.09272461 15.57583008 -0.09272461 17.08984375 -0.09765625 C18.46450806 -0.10551147 18.46450806 -0.10551147 19.86694336 -0.11352539 C22 0 22 0 23 1 C23 3.31 23 5.62 23 8 C15.41 8 7.82 8 0 8 C0 5.36 0 2.72 0 0 Z " fill="#6BE2CE" transform="translate(873,508)"/>
<path d="M0 0 C6.93 0 13.86 0 21 0 C21 2.64 21 5.28 21 8 C14.07 8 7.14 8 0 8 C0 5.36 0 2.72 0 0 Z " fill="#6EE2CB" transform="translate(391,508)"/>
<path d="M0 0 C6.93 0 13.86 0 21 0 C21 2.64 21 5.28 21 8 C14.4 8 7.8 8 1 8 C0.67 5.36 0.34 2.72 0 0 Z " fill="#6AE2CF" transform="translate(612,636)"/>
<path d="M0 0 C5.61 0 11.22 0 17 0 C17 2.64 17 5.28 17 8 C11.39 8 5.78 8 0 8 C0 5.36 0 2.72 0 0 Z " fill="#6EE2CB" transform="translate(192,380)"/>
<path d="M0 0 C5.61 0 11.22 0 17 0 C16.67 2.64 16.34 5.28 16 8 C11.05 8 6.1 8 1 8 C0.67 5.36 0.34 2.72 0 0 Z " fill="#6AE2CF" transform="translate(479,636)"/>
<path d="M0 0 C3.41753659 4.55671546 3.33144321 5.60317027 3.109375 11.07421875 C3.08530579 11.75748734 3.06123657 12.44075592 3.03643799 13.14472961 C2.95557093 15.32650862 2.85271323 17.50665225 2.75 19.6875 C2.69525365 21.13471478 2.64185487 22.58198121 2.58984375 24.02929688 C2.32098123 31.05438514 1.90821544 38.02396588 1 45 C0.67 45 0.34 45 0 45 C0 30.15 0 15.3 0 0 Z " fill="#6BE0CE" transform="translate(636,545)"/>
<path d="M0 0 C2.97 0 5.94 0 9 0 C9.33 2.64 9.66 5.28 10 8 C6.7 8 3.4 8 0 8 C0 5.36 0 2.72 0 0 Z " fill="#6EE2CB" transform="translate(331,380)"/>
<path d="M0 0 C1.98 0 3.96 0 6 0 C6 2.64 6 5.28 6 8 C4.02 8 2.04 8 0 8 C0 5.36 0 2.72 0 0 Z " fill="#6BE2CE" transform="translate(197,252)"/>
</svg>
